<?xml version="1.0" encoding="UTF-8" standalone="no"?>
<!DOCTYPE svg PUBLIC "-//W3C//DTD SVG 1.1//EN"
 "http://www.w3.org/Graphics/SVG/1.1/DTD/svg11.dtd">
<!-- Generated by graphviz version 2.50.0 (0)
 -->
<!-- Title: Tree Pages: 1 -->
<svg width="1501pt" height="405pt"
 viewBox="0.00 0.00 1501.00 404.96" xmlns="http://www.w3.org/2000/svg" xmlns:xlink="http://www.w3.org/1999/xlink">
<g id="graph0" class="graph" transform="scale(1 1) rotate(0) translate(4 400.96)">
<title>Tree</title>
<polygon fill="white" stroke="transparent" points="-4,4 -4,-400.96 1497,-400.96 1497,4 -4,4"/>
<!-- 0 -->
<g id="node1" class="node">
<title>0</title>
<path fill="#fefebb" stroke="black" stroke-width="0.1" d="M755,-370.09C755,-370.09 832.56,-370.09 832.56,-370.09 832.56,-370.97 832.44,-371.84 832.19,-372.71 831.94,-373.58 831.57,-374.45 831.07,-375.31 830.58,-376.17 829.96,-377.02 829.22,-377.85 828.49,-378.69 827.63,-379.52 826.66,-380.32 825.69,-381.13 824.6,-381.92 823.41,-382.7 822.21,-383.47 820.9,-384.22 819.49,-384.95 818.08,-385.67 816.57,-386.38 814.96,-387.05 813.35,-387.73 811.64,-388.38 809.85,-389 808.05,-389.62 806.17,-390.21 804.21,-390.76 802.24,-391.32 800.2,-391.84 798.09,-392.32 795.98,-392.81 793.8,-393.26 791.56,-393.67 789.32,-394.09 787.03,-394.46 784.68,-394.8 782.34,-395.13 779.95,-395.43 777.52,-395.68 775.09,-395.93 772.62,-396.15 770.13,-396.32 767.64,-396.49 765.13,-396.62 762.6,-396.7 760.08,-396.79 757.54,-396.83 755,-396.83 752.46,-396.83 749.92,-396.79 747.4,-396.7 744.87,-396.62 742.36,-396.49 739.87,-396.32 737.38,-396.15 734.91,-395.93 732.48,-395.68 730.05,-395.43 727.66,-395.13 725.32,-394.8 722.97,-394.46 720.68,-394.09 718.44,-393.67 716.2,-393.26 714.02,-392.81 711.91,-392.32 709.8,-391.84 707.76,-391.32 705.79,-390.76 703.83,-390.21 701.95,-389.62 700.15,-389 698.36,-388.38 696.65,-387.73 695.04,-387.05 693.43,-386.38 691.92,-385.67 690.51,-384.95 689.1,-384.22 687.79,-383.47 686.59,-382.7 685.4,-381.92 684.31,-381.13 683.34,-380.32 682.37,-379.52 681.51,-378.69 680.78,-377.85 680.04,-377.02 679.42,-376.17 678.93,-375.31 678.43,-374.45 678.06,-373.58 677.81,-372.71 677.56,-371.84 677.44,-370.97 677.44,-370.09 677.44,-370.09 755,-370.09 755,-370.09"/>
<path fill="#a1dab4" stroke="black" stroke-width="0.1" d="M755,-370.09C755,-370.09 677.44,-370.09 677.44,-370.09 677.44,-369.22 677.56,-368.34 677.81,-367.47 678.06,-366.6 678.43,-365.73 678.93,-364.87 679.42,-364.02 680.04,-363.17 680.78,-362.33 681.51,-361.49 682.37,-360.67 683.34,-359.86 684.31,-359.05 685.4,-358.26 686.59,-357.48 687.79,-356.71 689.1,-355.96 690.51,-355.23 691.92,-354.51 693.43,-353.8 695.04,-353.13 696.65,-352.45 698.36,-351.8 700.15,-351.18 701.95,-350.56 703.83,-349.97 705.79,-349.42 707.76,-348.86 709.8,-348.34 711.91,-347.86 714.02,-347.37 716.2,-346.92 718.44,-346.51 720.68,-346.09 722.97,-345.72 725.32,-345.39 727.66,-345.05 730.05,-344.76 732.48,-344.5 734.91,-344.25 737.38,-344.03 739.87,-343.86 742.36,-343.69 744.87,-343.56 747.4,-343.48 749.92,-343.39 752.46,-343.35 755,-343.35 757.54,-343.35 760.08,-343.39 762.6,-343.48 765.13,-343.56 767.64,-343.69 770.13,-343.86 772.62,-344.03 775.09,-344.25 777.52,-344.5 779.95,-344.76 782.34,-345.05 784.68,-345.39 787.03,-345.72 789.32,-346.09 791.56,-346.51 793.8,-346.92 795.98,-347.37 798.09,-347.86 800.2,-348.34 802.24,-348.86 804.21,-349.42 806.17,-349.97 808.05,-350.56 809.85,-351.18 811.64,-351.8 813.35,-352.45 814.96,-353.13 816.57,-353.8 818.08,-354.51 819.49,-355.23 820.9,-355.96 822.21,-356.71 823.41,-357.48 824.6,-358.26 825.69,-359.05 826.66,-359.86 827.63,-360.67 828.49,-361.49 829.22,-362.33 829.96,-363.17 830.58,-364.02 831.07,-364.87 831.57,-365.73 831.94,-366.6 832.19,-367.47 832.44,-368.34 832.56,-369.22 832.56,-370.09 832.56,-370.09 755,-370.09 755,-370.09"/>
<ellipse fill="none" stroke="black" stroke-width="0.1" cx="755" cy="-370.09" rx="77.56" ry="26.74"/>
<text text-anchor="start" x="718.5" y="-373.89" font-family="MicrosoftYaHei" font-size="14.00">12402036</text>
<text text-anchor="start" x="708" y="-358.89" font-family="MicrosoftYaHei" font-size="14.00">numerical_55</text>
</g>
<!-- 1 -->
<g id="node2" class="node">
<title>1</title>
<path fill="#fefebb" stroke="black" stroke-width="0.1" d="M576,-280.35C576,-280.35 652.24,-280.35 652.24,-280.35 652.24,-280.97 652.17,-281.59 652.05,-282.21 651.93,-282.83 651.74,-283.44 651.5,-284.06 651.25,-284.67 650.95,-285.28 650.58,-285.89 650.22,-286.49 649.79,-287.1 649.31,-287.69 648.82,-288.29 648.28,-288.88 647.67,-289.46 647.07,-290.04 646.41,-290.62 645.7,-291.19 644.98,-291.75 644.21,-292.31 643.38,-292.86 642.56,-293.41 641.68,-293.94 640.74,-294.47 639.81,-295 638.82,-295.51 637.79,-296.01 636.75,-296.52 635.67,-297.01 634.54,-297.48 633.41,-297.96 632.23,-298.42 631,-298.87 629.78,-299.31 628.51,-299.75 627.2,-300.16 625.89,-300.58 624.54,-300.98 623.15,-301.36 621.77,-301.75 620.34,-302.11 618.88,-302.46 617.42,-302.81 615.92,-303.14 614.4,-303.45 612.87,-303.76 611.31,-304.06 609.73,-304.33 608.14,-304.61 606.53,-304.86 604.9,-305.1 603.26,-305.33 601.6,-305.55 599.92,-305.74 598.25,-305.93 596.55,-306.11 594.84,-306.26 593.13,-306.41 591.4,-306.55 589.66,-306.66 587.92,-306.77 586.17,-306.86 584.42,-306.93 582.66,-307 580.9,-307.04 579.13,-307.07 577.37,-307.09 575.6,-307.1 573.83,-307.08 572.07,-307.06 570.3,-307.02 568.54,-306.96 566.78,-306.9 565.03,-306.82 563.29,-306.72 561.55,-306.61 559.82,-306.49 558.1,-306.34 556.38,-306.2 554.68,-306.03 552.99,-305.84 551.31,-305.66 549.64,-305.45 548,-305.22 546.36,-304.99 544.74,-304.75 543.14,-304.48 541.55,-304.21 539.98,-303.93 538.44,-303.62 536.9,-303.32 535.4,-302.99 533.92,-302.65 532.45,-302.31 531.01,-301.95 529.61,-301.57 528.21,-301.19 526.84,-300.8 525.52,-300.39 524.19,-299.98 522.91,-299.55 521.67,-299.11 520.43,-298.67 519.24,-298.21 518.09,-297.74 516.94,-297.27 515.83,-296.78 514.78,-296.29 513.73,-295.79 512.72,-295.28 511.77,-294.76 510.82,-294.23 509.92,-293.7 509.07,-293.16 508.23,-292.61 507.44,-292.06 506.7,-291.49 505.96,-290.93 505.28,-290.36 504.66,-289.78 504.04,-289.2 503.47,-288.61 502.97,-288.02 502.46,-287.42 502.01,-286.82 501.62,-286.22 501.24,-285.61 500.91,-285 500.64,-284.39 500.37,-283.78 500.17,-283.16 500.02,-282.55 499.88,-281.93 499.79,-281.31 499.77,-280.69 499.75,-280.07 499.79,-279.45 499.89,-278.83 499.99,-278.21 500.15,-277.59 500.37,-276.98 500.6,-276.36 500.88,-275.75 501.22,-275.14 501.57,-274.54 501.97,-273.93 502.44,-273.33 502.9,-272.74 503.42,-272.14 504,-271.56 504.58,-270.97 505.22,-270.4 505.92,-269.83 506.61,-269.26 507.37,-268.69 508.17,-268.14 508.98,-267.59 509.84,-267.05 510.75,-266.52 511.67,-265.99 512.63,-265.47 513.65,-264.96 514.67,-264.46 515.73,-263.96 516.85,-263.48 517.96,-263 519.13,-262.53 520.33,-262.08 521.54,-261.63 522.79,-261.19 524.09,-260.77 525.38,-260.35 526.72,-259.94 528.09,-259.55 529.47,-259.16 530.88,-258.79 532.33,-258.43 533.77,-258.08 535.26,-257.74 536.77,-257.42 538.29,-257.1 539.83,-256.8 541.41,-256.52 542.98,-256.24 544.59,-255.98 546.21,-255.74 547.84,-255.49 549.49,-255.27 551.16,-255.07 552.83,-254.87 554.52,-254.69 556.23,-254.52 556.23,-254.52 576,-280.35 576,-280.35"/>
<path fill="#a1dab4" stroke="black" stroke-width="0.1" d="M576,-280.35C576,-280.35 556.23,-254.52 556.23,-254.52 557.63,-254.39 559.05,-254.27 560.48,-254.17 561.9,-254.07 563.33,-253.98 564.77,-253.9 566.21,-253.83 567.66,-253.77 569.11,-253.72 570.56,-253.67 572.01,-253.64 573.47,-253.62 574.92,-253.61 576.38,-253.61 577.84,-253.62 579.29,-253.63 580.74,-253.66 582.2,-253.7 583.65,-253.74 585.09,-253.8 586.54,-253.87 587.98,-253.94 589.41,-254.02 590.84,-254.12 592.27,-254.22 593.69,-254.33 595.1,-254.46 596.51,-254.59 597.91,-254.73 599.29,-254.89 600.68,-255.04 602.05,-255.21 603.41,-255.4 604.77,-255.58 606.11,-255.78 607.44,-255.99 608.76,-256.2 610.07,-256.42 611.36,-256.66 612.65,-256.9 613.92,-257.15 615.17,-257.41 616.42,-257.67 617.65,-257.95 618.85,-258.23 620.06,-258.52 621.24,-258.82 622.39,-259.13 623.55,-259.44 624.68,-259.76 625.78,-260.1 626.88,-260.43 627.96,-260.78 629,-261.13 630.05,-261.49 631.07,-261.85 632.05,-262.23 633.04,-262.6 634,-262.99 634.92,-263.38 635.84,-263.78 636.74,-264.18 637.59,-264.59 638.45,-265.01 639.28,-265.43 640.06,-265.86 640.85,-266.28 641.61,-266.72 642.33,-267.17 643.04,-267.61 643.72,-268.06 644.37,-268.52 645.01,-268.98 645.62,-269.44 646.19,-269.91 646.76,-270.38 647.29,-270.86 647.78,-271.34 648.27,-271.82 648.72,-272.31 649.13,-272.8 649.54,-273.29 649.91,-273.78 650.24,-274.28 650.57,-274.77 650.86,-275.27 651.11,-275.78 651.36,-276.28 651.57,-276.79 651.74,-277.29 651.9,-277.8 652.03,-278.31 652.11,-278.82 652.19,-279.33 652.24,-279.84 652.24,-280.35 652.24,-280.35 576,-280.35 576,-280.35"/>
<ellipse fill="none" stroke="black" stroke-width="0.1" cx="576" cy="-280.35" rx="76.24" ry="26.74"/>
<text text-anchor="start" x="544" y="-284.15" font-family="MicrosoftYaHei" font-size="14.00">8814114</text>
<text text-anchor="start" x="530" y="-269.15" font-family="MicrosoftYaHei" font-size="14.00">categorical_4</text>
</g>
<!-- 0&#45;&gt;1 -->
<g id="edge1" class="edge">
<title>0&#45;&gt;1</title>
<path fill="none" stroke="black" d="M711.21,-347.63C686.21,-335.37 654.71,-319.93 628.41,-307.04"/>
<polygon fill="black" stroke="black" points="629.86,-303.85 619.34,-302.59 626.78,-310.14 629.86,-303.85"/>
<text text-anchor="middle" x="627.43" y="-322.55" font-family="MicrosoftYaHei" font-size="14.00">&lt;=0.254</text>
</g>
<!-- 16 -->
<g id="node3" class="node">
<title>16</title>
<path fill="#fefebb" stroke="black" stroke-width="0.1" d="M932,-280.35C932,-280.35 1008.24,-280.35 1008.24,-280.35 1008.24,-281.31 1008.09,-282.28 1007.79,-283.23 1007.5,-284.19 1007.05,-285.14 1006.46,-286.08 1005.88,-287.02 1005.14,-287.95 1004.27,-288.86 1003.39,-289.78 1002.38,-290.67 1001.23,-291.55 1000.08,-292.42 998.8,-293.27 997.39,-294.1 995.98,-294.92 994.44,-295.72 992.78,-296.49 991.12,-297.26 989.35,-297.99 987.47,-298.69 985.58,-299.4 983.59,-300.06 981.51,-300.69 979.42,-301.31 977.24,-301.9 974.97,-302.44 972.7,-302.98 970.35,-303.48 967.93,-303.93 965.51,-304.39 963.02,-304.8 960.47,-305.16 957.93,-305.52 955.33,-305.83 952.69,-306.09 950.04,-306.35 947.36,-306.56 944.66,-306.72 941.95,-306.88 939.22,-306.99 936.48,-307.04 933.74,-307.1 930.99,-307.11 928.25,-307.06 925.51,-307.01 922.78,-306.91 920.06,-306.76 920.06,-306.76 932,-280.35 932,-280.35"/>
<path fill="#a1dab4" stroke="black" stroke-width="0.1" d="M932,-280.35C932,-280.35 920.06,-306.76 920.06,-306.76 918.28,-306.66 916.5,-306.54 914.74,-306.4 912.98,-306.25 911.23,-306.09 909.5,-305.9 907.77,-305.71 906.07,-305.5 904.38,-305.27 902.69,-305.04 901.03,-304.79 899.4,-304.52 897.76,-304.25 896.15,-303.96 894.58,-303.65 893,-303.34 891.46,-303.01 889.95,-302.66 888.44,-302.31 886.97,-301.94 885.53,-301.55 884.1,-301.16 882.71,-300.76 881.35,-300.34 880,-299.92 878.69,-299.48 877.43,-299.02 876.17,-298.57 874.95,-298.1 873.78,-297.61 872.61,-297.13 871.5,-296.63 870.43,-296.12 869.36,-295.61 868.35,-295.08 867.39,-294.54 866.43,-294.01 865.52,-293.46 864.67,-292.9 863.83,-292.34 863.03,-291.76 862.3,-291.18 861.57,-290.6 860.9,-290.02 860.28,-289.42 859.67,-288.82 859.12,-288.22 858.62,-287.61 858.13,-287 857.71,-286.38 857.34,-285.76 856.97,-285.14 856.67,-284.51 856.43,-283.88 856.19,-283.25 856.02,-282.62 855.91,-281.99 855.8,-281.35 855.75,-280.72 855.77,-280.09 855.79,-279.45 855.87,-278.82 856.02,-278.18 856.16,-277.55 856.37,-276.92 856.65,-276.29 856.92,-275.67 857.26,-275.04 857.66,-274.43 858.06,-273.81 858.52,-273.19 859.05,-272.59 859.57,-271.98 860.16,-271.38 860.81,-270.79 861.46,-270.19 862.16,-269.61 862.93,-269.03 863.69,-268.46 864.52,-267.89 865.4,-267.34 866.28,-266.79 867.21,-266.24 868.2,-265.71 869.19,-265.18 870.24,-264.66 871.33,-264.16 872.43,-263.65 873.57,-263.16 874.77,-262.68 875.96,-262.21 877.21,-261.75 878.5,-261.3 879.78,-260.86 881.12,-260.43 882.49,-260.02 883.87,-259.6 885.29,-259.21 886.74,-258.83 888.2,-258.46 889.69,-258.1 891.22,-257.76 892.75,-257.42 894.31,-257.1 895.9,-256.8 897.5,-256.5 899.12,-256.22 900.77,-255.96 902.42,-255.7 904.09,-255.46 905.79,-255.24 907.49,-255.02 909.21,-254.82 910.95,-254.65 912.69,-254.47 914.45,-254.32 916.21,-254.19 917.98,-254.06 919.77,-253.95 921.56,-253.86 923.35,-253.77 925.15,-253.71 926.96,-253.67 928.76,-253.63 930.57,-253.61 932.38,-253.61 934.19,-253.61 935.99,-253.64 937.8,-253.69 939.6,-253.74 941.4,-253.81 943.19,-253.9 944.98,-253.99 946.76,-254.11 948.52,-254.25 950.29,-254.38 952.04,-254.54 953.77,-254.72 955.51,-254.9 957.22,-255.11 958.91,-255.33 960.61,-255.56 962.28,-255.8 963.92,-256.07 965.56,-256.33 967.18,-256.62 968.76,-256.92 970.35,-257.23 971.9,-257.56 973.42,-257.9 974.94,-258.24 976.42,-258.61 977.86,-258.99 979.31,-259.37 980.72,-259.77 982.08,-260.19 983.44,-260.61 984.76,-261.04 986.04,-261.49 987.32,-261.94 988.55,-262.4 989.73,-262.88 990.91,-263.36 992.04,-263.86 993.12,-264.37 994.2,-264.88 995.23,-265.4 996.21,-265.93 997.18,-266.47 998.1,-267.01 998.97,-267.57 999.83,-268.13 1000.64,-268.7 1001.39,-269.27 1002.14,-269.85 1002.83,-270.44 1003.46,-271.03 1004.09,-271.63 1004.66,-272.23 1005.17,-272.84 1005.67,-273.45 1006.12,-274.06 1006.5,-274.68 1006.89,-275.3 1007.21,-275.93 1007.46,-276.56 1007.72,-277.18 1007.91,-277.82 1008.04,-278.45 1008.17,-279.08 1008.24,-279.72 1008.24,-280.35 1008.24,-280.35 932,-280.35 932,-280.35"/>
<ellipse fill="none" stroke="black" stroke-width="0.1" cx="932" cy="-280.35" rx="76.24" ry="26.74"/>
<text text-anchor="start" x="900" y="-284.15" font-family="MicrosoftYaHei" font-size="14.00">3587922</text>
<text text-anchor="start" x="886" y="-269.15" font-family="MicrosoftYaHei" font-size="14.00">categorical_4</text>
</g>
<!-- 0&#45;&gt;16 -->
<g id="edge2" class="edge">
<title>0&#45;&gt;16</title>
<path fill="none" stroke="black" d="M798.3,-347.63C823.02,-335.37 854.17,-319.93 880.18,-307.04"/>
<polygon fill="black" stroke="black" points="881.74,-310.17 889.15,-302.59 878.63,-303.9 881.74,-310.17"/>
<text text-anchor="middle" x="881.16" y="-322.58" font-family="MicrosoftYaHei" font-size="14.00">&gt;0.254</text>
</g>
<!-- 2 -->
<g id="node4" class="node">
<title>2</title>
<path fill="#fefebb" stroke="black" stroke-width="0.1" d="M308,-190.61C308,-190.61 385.56,-190.61 385.56,-190.61 385.56,-191.14 385.52,-191.68 385.43,-192.21 385.33,-192.74 385.19,-193.27 385.01,-193.8 384.83,-194.33 384.6,-194.86 384.32,-195.38 384.04,-195.9 383.72,-196.43 383.36,-196.94 382.99,-197.46 382.58,-197.98 382.12,-198.49 381.67,-198.99 381.17,-199.5 380.63,-200 380.08,-200.5 379.5,-200.99 378.87,-201.48 378.24,-201.96 377.57,-202.44 376.86,-202.92 376.15,-203.39 375.4,-203.86 374.6,-204.31 373.81,-204.77 372.98,-205.22 372.11,-205.66 371.24,-206.1 370.33,-206.53 369.39,-206.96 368.44,-207.38 367.46,-207.79 366.45,-208.19 365.43,-208.59 364.38,-208.98 363.29,-209.36 362.21,-209.74 361.09,-210.11 359.95,-210.47 358.8,-210.83 357.62,-211.17 356.41,-211.5 355.2,-211.84 353.97,-212.16 352.7,-212.46 351.44,-212.77 350.15,-213.06 348.84,-213.34 347.52,-213.63 346.18,-213.89 344.82,-214.15 343.46,-214.4 342.08,-214.64 340.68,-214.86 339.28,-215.09 337.86,-215.3 336.42,-215.49 334.98,-215.69 333.52,-215.87 332.05,-216.03 330.59,-216.2 329.1,-216.35 327.61,-216.48 326.11,-216.62 324.6,-216.74 323.09,-216.84 321.57,-216.94 320.05,-217.03 318.51,-217.1 316.98,-217.18 315.45,-217.23 313.9,-217.27 312.36,-217.31 310.82,-217.34 309.27,-217.35 307.73,-217.36 306.18,-217.35 304.64,-217.33 303.09,-217.3 301.55,-217.26 300.01,-217.21 298.47,-217.15 296.94,-217.08 295.42,-217 293.89,-216.91 292.37,-216.81 290.87,-216.69 289.36,-216.57 287.86,-216.44 286.38,-216.29 284.89,-216.14 283.42,-215.98 281.97,-215.8 280.51,-215.62 279.07,-215.43 277.65,-215.22 276.22,-215.01 274.82,-214.79 273.44,-214.55 272.05,-214.31 270.69,-214.06 269.35,-213.79 268.01,-213.53 266.69,-213.25 265.4,-212.96 264.11,-212.66 262.84,-212.36 261.6,-212.04 260.36,-211.72 259.15,-211.39 257.97,-211.05 256.79,-210.7 255.64,-210.35 254.52,-209.98 253.4,-209.61 252.31,-209.23 251.26,-208.84 250.2,-208.45 249.18,-208.05 248.2,-207.64 247.22,-207.23 246.27,-206.81 245.36,-206.38 244.44,-205.95 243.57,-205.51 242.73,-205.06 241.9,-204.61 241.1,-204.15 240.35,-203.69 239.59,-203.22 238.88,-202.75 238.2,-202.27 237.53,-201.79 236.89,-201.31 236.3,-200.81 235.72,-200.32 235.17,-199.82 234.66,-199.32 234.16,-198.82 233.7,-198.31 233.29,-197.79 232.87,-197.28 232.5,-196.76 232.18,-196.24 231.85,-195.72 231.57,-195.2 231.33,-194.67 231.1,-194.14 230.91,-193.61 230.77,-193.08 230.63,-192.55 230.53,-192.02 230.48,-191.49 230.43,-190.95 230.42,-190.42 230.46,-189.89 230.51,-189.36 230.59,-188.82 230.73,-188.29 230.86,-187.76 231.04,-187.23 231.27,-186.71 231.49,-186.18 231.76,-185.65 232.08,-185.13 232.4,-184.61 232.76,-184.09 233.17,-183.58 233.57,-183.06 234.02,-182.55 234.52,-182.05 235.01,-181.54 235.55,-181.04 236.13,-180.55 236.72,-180.06 237.34,-179.57 238.01,-179.09 238.67,-178.61 239.38,-178.13 240.13,-177.67 240.88,-177.2 241.66,-176.74 242.49,-176.29 243.32,-175.84 244.19,-175.4 245.09,-174.97 245.99,-174.54 246.94,-174.11 247.91,-173.7 247.91,-173.7 308,-190.61 308,-190.61"/>
<path fill="#a1dab4" stroke="black" stroke-width="0.1" d="M308,-190.61C308,-190.61 247.91,-173.7 247.91,-173.7 249.17,-173.17 250.48,-172.66 251.85,-172.16 253.22,-171.67 254.65,-171.19 256.12,-170.73 257.6,-170.27 259.13,-169.83 260.7,-169.42 262.27,-169 263.89,-168.6 265.55,-168.23 267.22,-167.85 268.92,-167.5 270.66,-167.17 272.4,-166.84 274.17,-166.54 275.98,-166.25 277.79,-165.97 279.63,-165.71 281.5,-165.48 283.36,-165.25 285.25,-165.04 287.17,-164.85 289.08,-164.67 291.01,-164.51 292.96,-164.38 294.91,-164.24 296.87,-164.14 298.84,-164.06 300.81,-163.98 302.79,-163.92 304.77,-163.89 306.76,-163.86 308.74,-163.86 310.73,-163.89 312.71,-163.91 314.69,-163.96 316.67,-164.04 318.64,-164.11 320.6,-164.22 322.55,-164.34 324.5,-164.47 326.44,-164.63 328.35,-164.81 330.27,-164.99 332.16,-165.19 334.03,-165.42 335.91,-165.65 337.75,-165.9 339.56,-166.18 341.38,-166.46 343.16,-166.76 344.9,-167.09 346.65,-167.42 348.36,-167.76 350.03,-168.14 351.7,-168.51 353.32,-168.9 354.91,-169.31 356.49,-169.73 358.02,-170.16 359.51,-170.62 360.99,-171.07 362.42,-171.54 363.8,-172.04 365.18,-172.53 366.5,-173.04 367.77,-173.57 369.04,-174.09 370.24,-174.64 371.39,-175.2 372.53,-175.76 373.61,-176.33 374.63,-176.92 375.64,-177.51 376.6,-178.11 377.48,-178.72 378.36,-179.34 379.17,-179.96 379.92,-180.59 380.66,-181.23 381.33,-181.87 381.93,-182.53 382.53,-183.18 383.06,-183.84 383.52,-184.5 383.97,-185.17 384.35,-185.84 384.65,-186.52 384.96,-187.2 385.18,-187.88 385.34,-188.56 385.49,-189.24 385.56,-189.93 385.56,-190.61 385.56,-190.61 308,-190.61 308,-190.61"/>
<ellipse fill="none" stroke="black" stroke-width="0.1" cx="308" cy="-190.61" rx="77.56" ry="26.74"/>
<text text-anchor="start" x="276" y="-194.41" font-family="MicrosoftYaHei" font-size="14.00">4499192</text>
<text text-anchor="start" x="261" y="-179.41" font-family="MicrosoftYaHei" font-size="14.00">numerical_55</text>
</g>
<!-- 1&#45;&gt;2 -->
<g id="edge3" class="edge">
<title>1&#45;&gt;2</title>
<path fill="none" stroke="black" d="M521.44,-261.49C478.53,-247.44 418.59,-227.82 373.16,-212.94"/>
<polygon fill="black" stroke="black" points="373.99,-209.53 363.4,-209.75 371.82,-216.19 373.99,-209.53"/>
<text text-anchor="middle" x="374.7" y="-228.35" font-family="MicrosoftYaHei" font-size="14.00">&lt;=0.5</text>
</g>
<!-- 9 -->
<g id="node5" class="node">
<title>9</title>
<path fill="#fefebb" stroke="black" stroke-width="0.1" d="M576,-190.61C576,-190.61 653.56,-190.61 653.56,-190.61 653.56,-191.28 653.49,-191.95 653.34,-192.63 653.2,-193.3 652.98,-193.96 652.68,-194.63 652.39,-195.29 652.02,-195.95 651.59,-196.61 651.15,-197.26 650.64,-197.91 650.06,-198.56 649.48,-199.2 648.83,-199.83 648.11,-200.46 647.4,-201.08 646.61,-201.7 645.76,-202.3 644.9,-202.91 643.99,-203.5 643,-204.08 642.02,-204.66 640.97,-205.23 639.87,-205.78 638.76,-206.34 637.59,-206.88 636.37,-207.4 635.15,-207.92 633.86,-208.43 632.53,-208.92 631.19,-209.41 629.81,-209.88 628.37,-210.34 626.93,-210.79 625.44,-211.23 623.91,-211.64 622.37,-212.06 620.79,-212.45 619.17,-212.83 617.55,-213.2 615.89,-213.55 614.2,-213.88 612.5,-214.21 610.77,-214.52 609,-214.81 607.24,-215.1 605.44,-215.36 603.62,-215.6 601.8,-215.84 599.95,-216.05 598.08,-216.24 596.21,-216.44 594.32,-216.6 592.41,-216.75 590.51,-216.89 588.59,-217.01 586.65,-217.1 584.72,-217.19 582.78,-217.26 580.83,-217.3 578.89,-217.34 576.94,-217.36 574.99,-217.35 573.04,-217.34 571.09,-217.31 569.15,-217.25 567.2,-217.19 565.27,-217.1 563.34,-216.99 561.42,-216.88 559.51,-216.75 557.61,-216.59 555.72,-216.43 553.84,-216.25 551.99,-216.04 550.13,-215.83 548.3,-215.6 546.5,-215.34 544.7,-215.09 542.92,-214.81 541.18,-214.5 539.44,-214.2 537.73,-213.88 536.05,-213.53 534.38,-213.19 532.75,-212.82 531.16,-212.43 529.57,-212.04 528.02,-211.63 526.52,-211.2 525.02,-210.77 523.56,-210.33 522.16,-209.86 520.75,-209.39 519.4,-208.91 518.1,-208.4 516.81,-207.9 515.56,-207.38 514.38,-206.85 513.19,-206.32 512.07,-205.77 511,-205.2 509.94,-204.64 508.94,-204.06 508,-203.47 507.06,-202.88 506.19,-202.28 505.38,-201.67 504.57,-201.06 503.84,-200.44 503.16,-199.8 502.49,-199.17 501.89,-198.53 501.36,-197.89 500.83,-197.24 500.37,-196.59 499.98,-195.93 499.6,-195.27 499.28,-194.6 499.04,-193.94 498.8,-193.27 498.63,-192.6 498.53,-191.93 498.43,-191.26 498.41,-190.58 498.46,-189.91 498.51,-189.24 498.64,-188.57 498.84,-187.9 499.03,-187.23 499.3,-186.56 499.65,-185.9 499.99,-185.24 500.41,-184.58 500.89,-183.93 501.38,-183.28 501.94,-182.64 502.57,-182 503.19,-181.36 503.89,-180.74 504.66,-180.12 505.42,-179.5 506.25,-178.89 507.15,-178.29 508.05,-177.7 509.01,-177.11 510.04,-176.54 511.07,-175.97 512.15,-175.41 513.3,-174.87 514.45,-174.32 515.66,-173.8 516.92,-173.28 518.19,-172.77 519.5,-172.28 520.88,-171.8 522.25,-171.32 523.67,-170.86 525.15,-170.42 526.62,-169.98 528.14,-169.56 529.7,-169.16 531.27,-168.75 532.88,-168.37 534.52,-168.01 536.17,-167.65 537.86,-167.32 539.58,-167 541.3,-166.68 543.06,-166.39 544.84,-166.12 546.63,-165.85 548.44,-165.6 550.28,-165.38 552.12,-165.16 553.99,-164.96 555.87,-164.79 557.75,-164.61 559.66,-164.46 561.57,-164.34 563.49,-164.21 565.42,-164.11 567.36,-164.04 569.29,-163.96 571.24,-163.91 573.19,-163.89 575.14,-163.86 577.09,-163.86 579.04,-163.89 580.99,-163.92 582.93,-163.97 584.87,-164.04 584.87,-164.04 576,-190.61 576,-190.61"/>
<path fill="#a1dab4" stroke="black" stroke-width="0.1" d="M576,-190.61C576,-190.61 584.87,-164.04 584.87,-164.04 587.21,-164.14 589.53,-164.27 591.84,-164.43 594.14,-164.6 596.42,-164.8 598.67,-165.04 600.92,-165.27 603.14,-165.55 605.32,-165.85 607.5,-166.16 609.64,-166.5 611.72,-166.87 613.81,-167.25 615.85,-167.65 617.83,-168.09 619.82,-168.53 621.74,-169 623.6,-169.5 625.46,-169.99 627.25,-170.52 628.97,-171.07 630.69,-171.63 632.33,-172.21 633.9,-172.82 635.46,-173.42 636.95,-174.05 638.35,-174.7 639.75,-175.36 641.06,-176.03 642.28,-176.72 643.51,-177.42 644.64,-178.13 645.67,-178.86 646.71,-179.59 647.64,-180.33 648.48,-181.09 649.32,-181.85 650.06,-182.62 650.69,-183.4 651.33,-184.18 651.86,-184.97 652.28,-185.77 652.71,-186.57 653.03,-187.37 653.24,-188.18 653.46,-188.99 653.56,-189.8 653.56,-190.61 653.56,-190.61 576,-190.61 576,-190.61"/>
<ellipse fill="none" stroke="black" stroke-width="0.1" cx="576" cy="-190.61" rx="77.56" ry="26.74"/>
<text text-anchor="start" x="544" y="-194.41" font-family="MicrosoftYaHei" font-size="14.00">4314922</text>
<text text-anchor="start" x="529" y="-179.41" font-family="MicrosoftYaHei" font-size="14.00">numerical_55</text>
</g>
<!-- 1&#45;&gt;9 -->
<g id="edge4" class="edge">
<title>1&#45;&gt;9</title>
<path fill="none" stroke="black" d="M576,-253.03C576,-245.06 576,-236.17 576,-227.68"/>
<polygon fill="black" stroke="black" points="579.5,-227.61 576,-217.61 572.5,-227.61 579.5,-227.61"/>
<text text-anchor="middle" x="593.68" y="-231.59" font-family="MicrosoftYaHei" font-size="14.00">&gt;0.5</text>
</g>
<!-- 17 -->
<g id="node18" class="node">
<title>17</title>
<path fill="#fefebb" stroke="black" stroke-width="0.1" d="M932,-190.61C932,-190.61 1009.56,-190.61 1009.56,-190.61 1009.56,-191.49 1009.44,-192.38 1009.18,-193.25 1008.93,-194.13 1008.55,-195.01 1008.05,-195.87 1007.54,-196.74 1006.92,-197.59 1006.17,-198.44 1005.42,-199.28 1004.54,-200.11 1003.56,-200.93 1002.57,-201.74 1001.46,-202.54 1000.25,-203.32 999.03,-204.09 997.7,-204.85 996.27,-205.58 994.83,-206.31 993.3,-207.02 991.66,-207.7 990.02,-208.38 988.29,-209.03 986.46,-209.65 984.64,-210.27 982.73,-210.86 980.74,-211.41 978.75,-211.97 976.67,-212.49 974.53,-212.97 972.39,-213.46 970.18,-213.9 967.91,-214.31 965.64,-214.72 963.31,-215.09 960.94,-215.42 958.56,-215.75 956.14,-216.04 953.68,-216.29 951.22,-216.53 948.73,-216.74 946.21,-216.9 943.69,-217.06 941.15,-217.18 938.6,-217.25 936.05,-217.33 933.49,-217.36 930.93,-217.35 930.93,-217.35 932,-190.61 932,-190.61"/>
<path fill="#a1dab4" stroke="black" stroke-width="0.1" d="M932,-190.61C932,-190.61 930.93,-217.35 930.93,-217.35 929.03,-217.34 927.13,-217.31 925.24,-217.25 923.35,-217.19 921.46,-217.11 919.59,-217.01 917.72,-216.9 915.85,-216.77 914.01,-216.62 912.16,-216.47 910.33,-216.29 908.52,-216.1 906.71,-215.9 904.93,-215.68 903.16,-215.43 901.4,-215.19 899.67,-214.93 897.96,-214.64 896.25,-214.35 894.58,-214.04 892.94,-213.71 891.3,-213.38 889.69,-213.03 888.13,-212.66 886.56,-212.29 885.04,-211.9 883.56,-211.49 882.07,-211.09 880.63,-210.66 879.24,-210.21 877.85,-209.77 876.51,-209.3 875.21,-208.83 873.92,-208.35 872.68,-207.85 871.49,-207.34 870.3,-206.83 869.17,-206.3 868.1,-205.77 867.02,-205.23 866,-204.67 865.04,-204.11 864.09,-203.54 863.19,-202.97 862.35,-202.38 861.52,-201.79 860.74,-201.19 860.04,-200.59 859.33,-199.98 858.68,-199.36 858.11,-198.74 857.53,-198.12 857.02,-197.49 856.58,-196.85 856.13,-196.21 855.76,-195.57 855.45,-194.92 855.15,-194.28 854.91,-193.63 854.74,-192.98 854.57,-192.33 854.47,-191.67 854.44,-191.02 854.42,-190.36 854.46,-189.71 854.57,-189.06 854.68,-188.4 854.86,-187.75 855.11,-187.1 855.36,-186.45 855.67,-185.81 856.06,-185.17 856.45,-184.53 856.9,-183.89 857.42,-183.26 857.94,-182.63 858.53,-182.01 859.19,-181.39 859.84,-180.78 860.56,-180.17 861.34,-179.58 862.13,-178.98 862.97,-178.4 863.88,-177.82 864.79,-177.25 865.76,-176.68 866.79,-176.13 867.81,-175.58 868.9,-175.05 870.04,-174.52 871.18,-174 872.38,-173.49 873.63,-173 874.88,-172.51 876.18,-172.03 877.54,-171.57 878.89,-171.11 880.29,-170.67 881.73,-170.25 883.18,-169.82 884.67,-169.42 886.2,-169.03 887.73,-168.64 889.31,-168.28 890.92,-167.93 892.53,-167.58 894.17,-167.26 895.85,-166.95 897.53,-166.65 899.24,-166.36 900.98,-166.1 902.72,-165.84 904.49,-165.6 906.28,-165.38 908.07,-165.17 909.89,-164.97 911.72,-164.8 913.55,-164.63 915.4,-164.48 917.26,-164.36 919.13,-164.23 921,-164.13 922.89,-164.05 924.77,-163.98 926.67,-163.92 928.56,-163.9 930.46,-163.87 932.36,-163.86 934.26,-163.88 936.15,-163.9 938.05,-163.94 939.94,-164.01 941.83,-164.08 943.71,-164.17 945.57,-164.28 947.44,-164.4 949.3,-164.53 951.14,-164.7 952.98,-164.86 954.8,-165.04 956.6,-165.25 958.4,-165.46 960.18,-165.69 961.93,-165.94 963.68,-166.19 965.41,-166.47 967.1,-166.76 968.79,-167.06 970.45,-167.38 972.08,-167.72 973.7,-168.05 975.29,-168.41 976.84,-168.79 978.39,-169.17 979.9,-169.57 981.36,-169.98 982.83,-170.4 984.25,-170.83 985.62,-171.29 986.99,-171.74 988.31,-172.21 989.58,-172.7 990.86,-173.18 992.08,-173.68 993.24,-174.2 994.41,-174.72 995.51,-175.25 996.57,-175.79 997.62,-176.34 998.61,-176.9 999.55,-177.46 1000.48,-178.03 1001.35,-178.62 1002.16,-179.21 1002.97,-179.8 1003.72,-180.4 1004.4,-181.01 1005.08,-181.62 1005.69,-182.24 1006.24,-182.87 1006.79,-183.5 1007.28,-184.13 1007.69,-184.77 1008.11,-185.41 1008.45,-186.05 1008.73,-186.7 1009.01,-187.35 1009.22,-188 1009.36,-188.65 1009.49,-189.3 1009.56,-189.96 1009.56,-190.61 1009.56,-190.61 932,-190.61 932,-190.61"/>
<ellipse fill="none" stroke="black" stroke-width="0.1" cx="932" cy="-190.61" rx="77.56" ry="26.74"/>
<text text-anchor="start" x="900" y="-194.41" font-family="MicrosoftYaHei" font-size="14.00">2281358</text>
<text text-anchor="start" x="885" y="-179.41" font-family="MicrosoftYaHei" font-size="14.00">numerical_55</text>
</g>
<!-- 16&#45;&gt;17 -->
<g id="edge17" class="edge">
<title>16&#45;&gt;17</title>
<path fill="none" stroke="black" d="M932,-253.03C932,-245.06 932,-236.17 932,-227.68"/>
<polygon fill="black" stroke="black" points="935.5,-227.61 932,-217.61 928.5,-227.61 935.5,-227.61"/>
<text text-anchor="middle" x="914.32" y="-231.59" font-family="MicrosoftYaHei" font-size="14.00">&lt;=0.5</text>
</g>
<!-- 24 -->
<g id="node19" class="node">
<title>24</title>
<path fill="#fefebb" stroke="black" stroke-width="0.1" d="M1193,-190.61C1193,-190.61 1270.56,-190.61 1270.56,-190.61 1270.56,-191.12 1270.52,-191.62 1270.44,-192.12 1270.36,-192.63 1270.23,-193.13 1270.07,-193.63 1269.9,-194.14 1269.69,-194.64 1269.45,-195.13 1269.2,-195.63 1268.91,-196.13 1268.58,-196.62 1268.25,-197.11 1267.88,-197.6 1267.47,-198.08 1267.06,-198.57 1266.61,-199.05 1266.12,-199.53 1265.64,-200 1265.11,-200.47 1264.54,-200.94 1263.98,-201.41 1263.37,-201.87 1262.73,-202.32 1262.09,-202.77 1261.41,-203.22 1260.7,-203.66 1259.98,-204.1 1259.23,-204.54 1258.44,-204.96 1257.66,-205.39 1256.84,-205.81 1255.98,-206.22 1255.12,-206.63 1254.24,-207.03 1253.32,-207.42 1252.39,-207.82 1251.44,-208.2 1250.46,-208.57 1249.47,-208.95 1248.46,-209.31 1247.41,-209.67 1246.37,-210.02 1245.3,-210.37 1244.2,-210.7 1243.1,-211.03 1241.97,-211.35 1240.81,-211.67 1239.66,-211.98 1238.48,-212.28 1237.28,-212.57 1236.08,-212.85 1234.85,-213.13 1233.6,-213.39 1232.35,-213.66 1231.08,-213.91 1229.79,-214.15 1228.5,-214.39 1227.19,-214.62 1225.87,-214.83 1224.54,-215.05 1223.2,-215.25 1221.84,-215.43 1220.48,-215.62 1219.1,-215.8 1217.71,-215.96 1216.32,-216.12 1214.92,-216.27 1213.51,-216.4 1212.1,-216.53 1210.67,-216.65 1209.24,-216.76 1207.81,-216.86 1206.37,-216.96 1204.92,-217.03 1203.47,-217.11 1202.02,-217.17 1200.56,-217.22 1199.1,-217.27 1197.64,-217.31 1196.18,-217.33 1194.71,-217.35 1193.25,-217.36 1191.78,-217.35 1190.32,-217.34 1188.85,-217.32 1187.39,-217.28 1185.93,-217.24 1184.47,-217.19 1183.02,-217.13 1181.57,-217.06 1180.12,-216.98 1178.68,-216.89 1177.24,-216.8 1175.81,-216.69 1174.39,-216.57 1172.96,-216.45 1171.55,-216.31 1170.15,-216.16 1168.75,-216.02 1167.36,-215.85 1165.99,-215.68 1164.62,-215.5 1163.26,-215.31 1161.92,-215.11 1160.57,-214.91 1159.25,-214.69 1157.94,-214.46 1156.64,-214.24 1155.35,-213.99 1154.08,-213.74 1152.81,-213.49 1151.57,-213.22 1150.34,-212.94 1149.12,-212.67 1147.92,-212.38 1146.74,-212.08 1145.57,-211.77 1144.42,-211.46 1143.29,-211.14 1142.17,-210.81 1141.07,-210.48 1140,-210.13 1138.93,-209.79 1137.89,-209.43 1136.88,-209.07 1135.87,-208.7 1134.88,-208.33 1133.94,-207.94 1132.99,-207.56 1132.07,-207.16 1131.18,-206.76 1130.3,-206.36 1129.45,-205.95 1128.63,-205.53 1127.81,-205.11 1127.03,-204.68 1126.28,-204.25 1125.53,-203.81 1124.82,-203.37 1124.15,-202.92 1123.47,-202.48 1122.84,-202.02 1122.24,-201.56 1121.64,-201.1 1121.07,-200.63 1120.55,-200.16 1120.03,-199.69 1119.54,-199.21 1119.1,-198.73 1118.65,-198.25 1118.25,-197.76 1117.88,-197.28 1117.52,-196.79 1117.19,-196.29 1116.91,-195.8 1116.63,-195.3 1116.38,-194.8 1116.18,-194.3 1115.98,-193.8 1115.82,-193.3 1115.7,-192.8 1115.58,-192.29 1115.5,-191.79 1115.46,-191.29 1115.42,-190.78 1115.43,-190.28 1115.47,-189.77 1115.52,-189.27 1115.61,-188.76 1115.74,-188.26 1115.87,-187.76 1116.04,-187.25 1116.25,-186.75 1116.46,-186.25 1116.71,-185.76 1117,-185.26 1117.3,-184.77 1117.63,-184.27 1118,-183.79 1118.38,-183.3 1118.79,-182.81 1119.25,-182.33 1119.7,-181.85 1120.19,-181.38 1120.72,-180.91 1121.26,-180.44 1121.83,-179.97 1122.43,-179.51 1123.04,-179.05 1123.69,-178.6 1124.37,-178.15 1124.37,-178.15 1193,-190.61 1193,-190.61"/>
<path fill="#a1dab4" stroke="black" stroke-width="0.1" d="M1193,-190.61C1193,-190.61 1124.37,-178.15 1124.37,-178.15 1125.37,-177.5 1126.45,-176.86 1127.6,-176.23 1128.76,-175.61 1129.99,-175 1131.29,-174.41 1132.59,-173.82 1133.96,-173.25 1135.4,-172.7 1136.83,-172.15 1138.34,-171.62 1139.9,-171.12 1141.47,-170.61 1143.09,-170.13 1144.78,-169.67 1146.46,-169.21 1148.19,-168.77 1149.98,-168.36 1151.77,-167.95 1153.6,-167.56 1155.48,-167.21 1157.36,-166.85 1159.28,-166.52 1161.24,-166.21 1163.2,-165.91 1165.19,-165.64 1167.22,-165.39 1169.24,-165.14 1171.3,-164.93 1173.37,-164.74 1175.45,-164.55 1177.55,-164.39 1179.66,-164.27 1181.78,-164.14 1183.91,-164.04 1186.05,-163.98 1188.19,-163.91 1190.33,-163.88 1192.48,-163.87 1194.62,-163.87 1196.77,-163.89 1198.91,-163.95 1201.05,-164 1203.19,-164.09 1205.31,-164.21 1207.43,-164.33 1209.53,-164.47 1211.61,-164.65 1213.7,-164.83 1215.76,-165.04 1217.79,-165.27 1219.83,-165.51 1221.83,-165.77 1223.8,-166.07 1225.77,-166.36 1227.71,-166.68 1229.6,-167.03 1231.49,-167.38 1233.34,-167.76 1235.15,-168.16 1236.95,-168.56 1238.7,-168.99 1240.4,-169.44 1242.1,-169.9 1243.75,-170.37 1245.33,-170.87 1246.91,-171.37 1248.44,-171.89 1249.9,-172.44 1251.36,-172.98 1252.75,-173.54 1254.07,-174.13 1255.4,-174.71 1256.65,-175.31 1257.83,-175.93 1259.01,-176.55 1260.11,-177.18 1261.14,-177.83 1262.16,-178.48 1263.11,-179.15 1263.98,-179.83 1264.84,-180.5 1265.63,-181.19 1266.33,-181.89 1267.03,-182.59 1267.64,-183.3 1268.17,-184.02 1268.7,-184.74 1269.14,-185.46 1269.5,-186.19 1269.85,-186.92 1270.12,-187.65 1270.3,-188.39 1270.47,-189.13 1270.56,-189.87 1270.56,-190.61 1270.56,-190.61 1193,-190.61 1193,-190.61"/>
<ellipse fill="none" stroke="black" stroke-width="0.1" cx="1193" cy="-190.61" rx="77.56" ry="26.74"/>
<text text-anchor="start" x="1161" y="-194.41" font-family="MicrosoftYaHei" font-size="14.00">1306564</text>
<text text-anchor="start" x="1146" y="-179.41" font-family="MicrosoftYaHei" font-size="14.00">numerical_55</text>
</g>
<!-- 16&#45;&gt;24 -->
<g id="edge18" class="edge">
<title>16&#45;&gt;24</title>
<path fill="none" stroke="black" d="M986.08,-261.17C1027.59,-247.22 1085.01,-227.91 1128.84,-213.18"/>
<polygon fill="black" stroke="black" points="1130.18,-216.42 1138.54,-209.92 1127.95,-209.79 1130.18,-216.42"/>
<text text-anchor="middle" x="1127.42" y="-228.61" font-family="MicrosoftYaHei" font-size="14.00">&gt;0.5</text>
</g>
<!-- 3 -->
<g id="node6" class="node">
<title>3</title>
<path fill="#fefebb" stroke="black" stroke-width="0.1" d="M129,-100.87C129,-100.87 206.56,-100.87 206.56,-100.87 206.56,-101.47 206.51,-102.06 206.39,-102.65 206.28,-103.25 206.1,-103.84 205.87,-104.43 205.64,-105.02 205.36,-105.61 205.01,-106.19 204.67,-106.77 204.27,-107.35 203.82,-107.92 203.36,-108.5 202.85,-109.07 202.28,-109.63 201.72,-110.19 201.1,-110.75 200.43,-111.29 199.75,-111.84 199.03,-112.38 198.25,-112.91 197.47,-113.45 196.65,-113.97 195.77,-114.48 194.89,-114.99 193.96,-115.49 192.99,-115.98 192.01,-116.48 190.99,-116.95 189.92,-117.42 188.85,-117.89 187.74,-118.34 186.58,-118.79 185.43,-119.23 184.23,-119.66 182.99,-120.07 181.75,-120.48 180.47,-120.88 179.15,-121.27 177.84,-121.65 176.48,-122.02 175.1,-122.38 173.71,-122.73 172.29,-123.07 170.83,-123.39 169.38,-123.71 167.9,-124.01 166.38,-124.3 164.87,-124.59 163.33,-124.86 161.77,-125.11 160.2,-125.36 158.61,-125.59 157.01,-125.81 155.4,-126.02 153.77,-126.22 152.12,-126.4 150.47,-126.57 148.81,-126.73 147.13,-126.87 145.45,-127.01 143.76,-127.13 142.06,-127.23 140.36,-127.33 138.65,-127.41 136.93,-127.47 135.21,-127.53 133.49,-127.57 131.77,-127.59 130.04,-127.62 128.32,-127.62 126.59,-127.6 124.87,-127.58 123.14,-127.54 121.43,-127.48 119.71,-127.42 118,-127.35 116.29,-127.25 114.59,-127.15 112.9,-127.04 111.22,-126.9 109.54,-126.76 107.87,-126.61 106.22,-126.43 104.57,-126.26 102.94,-126.06 101.33,-125.85 99.72,-125.64 98.13,-125.41 96.56,-125.16 94.99,-124.91 93.45,-124.64 91.93,-124.36 90.42,-124.08 88.93,-123.77 87.47,-123.45 86.01,-123.14 84.59,-122.8 83.19,-122.45 81.8,-122.1 80.44,-121.73 79.12,-121.35 77.8,-120.97 76.52,-120.57 75.27,-120.16 74.03,-119.74 72.82,-119.32 71.66,-118.88 70.5,-118.44 69.38,-117.98 68.3,-117.52 67.23,-117.05 66.2,-116.58 65.22,-116.09 64.24,-115.6 63.3,-115.1 62.42,-114.59 61.53,-114.08 60.7,-113.55 59.91,-113.02 59.13,-112.49 58.39,-111.96 57.71,-111.41 57.03,-110.86 56.41,-110.31 55.83,-109.75 55.26,-109.18 54.74,-108.62 54.28,-108.04 53.82,-107.47 53.41,-106.89 53.06,-106.31 52.71,-105.73 52.41,-105.14 52.17,-104.55 51.94,-103.96 51.76,-103.37 51.63,-102.78 51.51,-102.18 51.44,-101.59 51.44,-100.99 51.43,-100.4 51.48,-99.8 51.59,-99.21 51.69,-98.62 51.86,-98.02 52.08,-97.43 52.3,-96.84 52.58,-96.26 52.91,-95.67 53.25,-95.09 53.64,-94.51 54.09,-93.94 54.54,-93.36 55.04,-92.79 55.6,-92.23 56.16,-91.67 56.77,-91.11 57.43,-90.56 58.1,-90.01 58.82,-89.47 59.59,-88.94 60.36,-88.4 61.18,-87.88 62.05,-87.37 62.92,-86.85 63.84,-86.35 64.81,-85.86 65.78,-85.37 66.8,-84.88 67.86,-84.42 68.92,-83.95 70.03,-83.49 71.18,-83.05 72.33,-82.6 73.52,-82.17 74.75,-81.76 75.99,-81.34 77.26,-80.94 78.57,-80.55 79.88,-80.17 81.23,-79.79 82.62,-79.44 84,-79.08 85.42,-78.74 86.87,-78.42 88.31,-78.1 89.79,-77.79 91.3,-77.5 92.81,-77.21 94.35,-76.94 95.91,-76.69 95.91,-76.69 129,-100.87 129,-100.87"/>
<path fill="#a1dab4" stroke="black" stroke-width="0.1" d="M129,-100.87C129,-100.87 95.91,-76.69 95.91,-76.69 97.38,-76.45 98.87,-76.22 100.38,-76.02 101.89,-75.81 103.42,-75.62 104.96,-75.45 106.51,-75.27 108.07,-75.12 109.64,-74.98 111.22,-74.84 112.81,-74.71 114.4,-74.61 116,-74.5 117.6,-74.41 119.22,-74.34 120.83,-74.27 122.45,-74.22 124.07,-74.18 125.69,-74.15 127.32,-74.13 128.94,-74.13 130.57,-74.13 132.19,-74.15 133.81,-74.18 135.44,-74.22 137.06,-74.27 138.67,-74.34 140.28,-74.41 141.89,-74.5 143.48,-74.6 145.08,-74.7 146.67,-74.83 148.24,-74.97 149.82,-75.1 151.38,-75.26 152.92,-75.43 154.47,-75.61 156,-75.8 157.51,-76 159.02,-76.21 160.52,-76.43 161.99,-76.67 163.46,-76.91 164.91,-77.16 166.33,-77.43 167.76,-77.7 169.16,-77.99 170.53,-78.29 171.9,-78.59 173.25,-78.9 174.56,-79.23 175.88,-79.56 177.16,-79.9 178.42,-80.26 179.67,-80.62 180.89,-80.99 182.07,-81.37 183.26,-81.75 184.41,-82.15 185.52,-82.56 186.64,-82.97 187.71,-83.39 188.75,-83.82 189.78,-84.25 190.78,-84.69 191.74,-85.15 192.69,-85.6 193.61,-86.06 194.48,-86.54 195.35,-87.01 196.18,-87.49 196.96,-87.98 197.74,-88.47 198.48,-88.97 199.18,-89.48 199.87,-89.99 200.51,-90.5 201.11,-91.02 201.71,-91.54 202.26,-92.07 202.76,-92.6 203.27,-93.14 203.72,-93.67 204.12,-94.22 204.53,-94.76 204.88,-95.31 205.19,-95.86 205.49,-96.41 205.75,-96.96 205.95,-97.52 206.16,-98.07 206.31,-98.63 206.41,-99.19 206.51,-99.75 206.56,-100.31 206.56,-100.87 206.56,-100.87 129,-100.87 129,-100.87"/>
<ellipse fill="none" stroke="black" stroke-width="0.1" cx="129" cy="-100.87" rx="77.56" ry="26.74"/>
<text text-anchor="start" x="97" y="-104.67" font-family="MicrosoftYaHei" font-size="14.00">3013832</text>
<text text-anchor="start" x="82" y="-89.67" font-family="MicrosoftYaHei" font-size="14.00">numerical_56</text>
</g>
<!-- 2&#45;&gt;3 -->
<g id="edge5" class="edge">
<title>2&#45;&gt;3</title>
<path fill="none" stroke="black" d="M264.21,-168.15C239.31,-155.94 207.95,-140.57 181.7,-127.7"/>
<polygon fill="black" stroke="black" points="183.17,-124.52 172.65,-123.26 180.08,-130.81 183.17,-124.52"/>
<text text-anchor="middle" x="180.74" y="-143.22" font-family="MicrosoftYaHei" font-size="14.00">&lt;=0.215</text>
</g>
<!-- 6 -->
<g id="node7" class="node">
<title>6</title>
<path fill="#fefebb" stroke="black" stroke-width="0.1" d="M308,-100.87C308,-100.87 390.96,-100.87 390.96,-100.87 390.96,-101.54 390.89,-102.21 390.73,-102.88 390.57,-103.55 390.34,-104.22 390.02,-104.89 389.71,-105.55 389.32,-106.21 388.85,-106.86 388.39,-107.52 387.84,-108.17 387.22,-108.81 386.6,-109.45 385.91,-110.08 385.14,-110.71 384.38,-111.33 383.54,-111.95 382.63,-112.55 381.72,-113.16 380.74,-113.75 379.69,-114.33 378.64,-114.91 377.52,-115.48 376.34,-116.03 375.16,-116.59 373.91,-117.12 372.6,-117.65 371.3,-118.17 369.93,-118.68 368.5,-119.17 367.07,-119.66 365.59,-120.13 364.06,-120.58 362.52,-121.04 360.93,-121.47 359.29,-121.89 357.65,-122.3 355.97,-122.7 354.24,-123.07 352.51,-123.45 350.73,-123.8 348.92,-124.13 347.11,-124.46 345.25,-124.77 343.37,-125.06 341.48,-125.35 339.57,-125.61 337.62,-125.85 335.67,-126.09 333.7,-126.3 331.7,-126.5 329.7,-126.69 327.68,-126.86 325.65,-127 323.61,-127.14 321.56,-127.26 319.49,-127.35 317.43,-127.45 315.36,-127.51 313.28,-127.56 311.2,-127.6 309.11,-127.62 307.03,-127.61 304.94,-127.6 302.86,-127.57 300.78,-127.51 298.71,-127.45 296.64,-127.37 294.58,-127.26 292.53,-127.15 290.48,-127.02 288.46,-126.86 286.43,-126.7 284.42,-126.52 282.44,-126.31 280.46,-126.1 278.5,-125.87 276.57,-125.62 274.64,-125.36 272.74,-125.09 270.88,-124.79 269.02,-124.48 267.19,-124.16 265.4,-123.82 263.61,-123.47 261.86,-123.1 260.16,-122.72 258.46,-122.33 256.8,-121.92 255.19,-121.49 253.59,-121.07 252.03,-120.62 250.53,-120.15 249.02,-119.69 247.58,-119.21 246.19,-118.71 246.19,-118.71 308,-100.87 308,-100.87"/>
<path fill="#a1dab4" stroke="black" stroke-width="0.1" d="M308,-100.87C308,-100.87 246.19,-118.71 246.19,-118.71 245.07,-118.3 243.99,-117.89 242.95,-117.47 241.91,-117.05 240.92,-116.61 239.96,-116.17 239,-115.73 238.09,-115.28 237.21,-114.82 236.34,-114.36 235.51,-113.89 234.73,-113.41 233.94,-112.94 233.2,-112.45 232.51,-111.96 231.81,-111.47 231.17,-110.97 230.57,-110.47 229.97,-109.97 229.41,-109.46 228.91,-108.94 228.4,-108.43 227.95,-107.91 227.54,-107.39 227.13,-106.86 226.77,-106.34 226.46,-105.81 226.15,-105.28 225.89,-104.74 225.69,-104.21 225.48,-103.67 225.32,-103.14 225.21,-102.6 225.1,-102.06 225.04,-101.52 225.04,-100.98 225.03,-100.44 225.07,-99.9 225.17,-99.37 225.26,-98.83 225.41,-98.29 225.6,-97.75 225.8,-97.22 226.04,-96.68 226.34,-96.15 226.63,-95.62 226.98,-95.1 227.37,-94.57 227.77,-94.05 228.21,-93.53 228.7,-93.01 229.19,-92.5 229.73,-91.99 230.32,-91.48 230.91,-90.98 231.54,-90.48 232.22,-89.98 232.9,-89.49 233.63,-89.01 234.4,-88.53 235.18,-88.05 235.99,-87.58 236.85,-87.12 237.71,-86.65 238.62,-86.2 239.56,-85.75 240.51,-85.31 241.5,-84.87 242.52,-84.45 243.55,-84.02 244.62,-83.61 245.72,-83.2 246.83,-82.8 247.97,-82.4 249.15,-82.02 250.33,-81.64 251.55,-81.27 252.8,-80.91 254.04,-80.55 255.33,-80.2 256.64,-79.87 257.95,-79.54 259.3,-79.21 260.67,-78.91 262.05,-78.6 263.45,-78.31 264.88,-78.02 266.31,-77.74 267.76,-77.48 269.24,-77.23 270.72,-76.97 272.23,-76.74 273.75,-76.51 275.27,-76.29 276.82,-76.08 278.38,-75.89 279.94,-75.7 281.52,-75.52 283.12,-75.36 284.72,-75.2 286.33,-75.05 287.95,-74.92 289.57,-74.79 291.21,-74.68 292.85,-74.58 294.5,-74.48 296.15,-74.4 297.81,-74.33 299.47,-74.27 301.14,-74.22 302.81,-74.18 304.48,-74.15 306.15,-74.13 307.83,-74.13 309.5,-74.13 311.17,-74.14 312.84,-74.17 314.51,-74.21 316.18,-74.25 317.84,-74.32 319.5,-74.38 321.16,-74.46 322.8,-74.56 324.45,-74.65 326.09,-74.77 327.71,-74.9 329.34,-75.02 330.95,-75.17 332.55,-75.33 334.15,-75.49 335.73,-75.66 337.29,-75.85 338.86,-76.04 340.41,-76.25 341.93,-76.47 343.46,-76.69 344.97,-76.92 346.45,-77.17 347.93,-77.42 349.39,-77.69 350.82,-77.97 352.26,-78.25 353.66,-78.54 355.04,-78.84 356.42,-79.15 357.77,-79.47 359.09,-79.8 360.4,-80.13 361.69,-80.48 362.95,-80.83 364.2,-81.19 365.42,-81.56 366.6,-81.94 367.79,-82.32 368.94,-82.72 370.05,-83.12 371.16,-83.52 372.23,-83.94 373.26,-84.36 374.3,-84.78 375.29,-85.22 376.24,-85.66 377.19,-86.11 378.1,-86.56 378.97,-87.02 379.83,-87.48 380.66,-87.95 381.44,-88.43 382.21,-88.91 382.95,-89.39 383.64,-89.88 384.32,-90.37 384.96,-90.87 385.56,-91.38 386.15,-91.88 386.7,-92.39 387.2,-92.9 387.7,-93.42 388.15,-93.94 388.55,-94.46 388.95,-94.99 389.3,-95.51 389.6,-96.04 389.9,-96.57 390.16,-97.11 390.36,-97.64 390.56,-98.18 390.71,-98.72 390.81,-99.25 390.91,-99.79 390.96,-100.33 390.96,-100.87 390.96,-100.87 308,-100.87 308,-100.87"/>
<ellipse fill="none" stroke="black" stroke-width="0.1" cx="308" cy="-100.87" rx="82.96" ry="26.74"/>
<text text-anchor="start" x="276" y="-104.67" font-family="MicrosoftYaHei" font-size="14.00">1485360</text>
<text text-anchor="start" x="257.5" y="-89.67" font-family="MicrosoftYaHei" font-size="14.00">categorical_11</text>
</g>
<!-- 2&#45;&gt;6 -->
<g id="edge6" class="edge">
<title>2&#45;&gt;6</title>
<path fill="none" stroke="black" d="M308,-163.29C308,-155.32 308,-146.43 308,-137.94"/>
<polygon fill="black" stroke="black" points="311.5,-137.87 308,-127.87 304.5,-137.87 311.5,-137.87"/>
<text text-anchor="middle" x="325.68" y="-141.85" font-family="MicrosoftYaHei" font-size="14.00">&gt;0.215</text>
</g>
<!-- 10 -->
<g id="node12" class="node">
<title>10</title>
<path fill="#fefebb" stroke="black" stroke-width="0.1" d="M487,-100.87C487,-100.87 564.56,-100.87 564.56,-100.87 564.56,-101.57 564.49,-102.26 564.33,-102.95 564.17,-103.65 563.93,-104.34 563.62,-105.03 563.31,-105.71 562.92,-106.4 562.45,-107.07 561.98,-107.75 561.44,-108.42 560.82,-109.08 560.2,-109.74 559.5,-110.4 558.73,-111.04 557.97,-111.69 557.13,-112.32 556.22,-112.94 555.3,-113.56 554.32,-114.17 553.28,-114.76 552.23,-115.36 551.11,-115.94 549.93,-116.5 548.75,-117.07 547.51,-117.61 546.21,-118.15 544.9,-118.68 543.54,-119.19 542.12,-119.68 540.7,-120.18 539.22,-120.65 537.7,-121.11 536.17,-121.56 534.59,-122 532.97,-122.41 531.34,-122.82 529.67,-123.21 527.96,-123.58 526.24,-123.95 524.49,-124.29 522.7,-124.61 520.9,-124.93 519.08,-125.23 517.22,-125.5 515.36,-125.77 513.47,-126.01 511.56,-126.24 509.64,-126.46 507.7,-126.65 505.75,-126.82 503.79,-126.99 501.81,-127.13 499.82,-127.24 497.83,-127.36 495.83,-127.45 493.82,-127.51 491.81,-127.57 489.79,-127.6 487.77,-127.61 485.76,-127.62 483.74,-127.6 481.73,-127.55 479.71,-127.5 477.7,-127.43 475.71,-127.33 473.71,-127.22 471.73,-127.1 469.76,-126.94 467.79,-126.79 465.84,-126.61 463.92,-126.4 461.99,-126.19 460.09,-125.96 458.21,-125.7 456.34,-125.44 454.5,-125.16 452.69,-124.85 450.88,-124.54 449.1,-124.21 447.37,-123.86 445.63,-123.5 443.94,-123.12 442.29,-122.72 440.64,-122.32 439.04,-121.9 437.48,-121.45 435.93,-121.01 434.43,-120.54 432.98,-120.06 431.53,-119.58 430.14,-119.07 428.81,-118.55 427.47,-118.03 426.2,-117.49 424.99,-116.93 423.77,-116.38 422.62,-115.8 421.54,-115.22 420.46,-114.63 419.44,-114.03 418.5,-113.41 417.55,-112.8 416.67,-112.17 415.87,-111.53 415.06,-110.9 414.33,-110.25 413.67,-109.59 413.02,-108.93 412.43,-108.26 411.93,-107.59 411.42,-106.92 410.99,-106.24 410.63,-105.55 410.28,-104.87 410.01,-104.18 409.81,-103.49 409.61,-102.79 409.49,-102.1 409.45,-101.4 409.41,-100.71 409.45,-100.01 409.57,-99.32 409.68,-98.62 409.88,-97.93 410.15,-97.24 410.43,-96.55 410.78,-95.87 411.21,-95.19 411.64,-94.51 412.14,-93.83 412.72,-93.17 413.3,-92.5 413.96,-91.84 414.69,-91.19 415.42,-90.55 416.23,-89.91 417.1,-89.28 417.97,-88.65 418.92,-88.04 419.93,-87.44 420.95,-86.84 422.03,-86.25 423.18,-85.67 424.32,-85.1 425.53,-84.55 426.81,-84.01 428.08,-83.47 429.41,-82.94 430.8,-82.44 432.19,-81.94 433.64,-81.45 435.14,-80.98 436.64,-80.52 438.19,-80.07 439.8,-79.65 441.4,-79.23 443.05,-78.83 444.74,-78.45 446.43,-78.07 448.16,-77.71 449.94,-77.38 451.71,-77.05 453.52,-76.74 455.36,-76.45 457.2,-76.17 459.08,-75.91 460.98,-75.68 462.88,-75.45 464.81,-75.24 466.76,-75.06 468.7,-74.87 470.67,-74.72 472.65,-74.59 474.64,-74.46 476.63,-74.36 478.64,-74.29 480.65,-74.21 482.66,-74.16 484.68,-74.14 486.69,-74.12 488.71,-74.13 490.73,-74.16 492.74,-74.19 494.76,-74.25 496.76,-74.34 498.76,-74.43 500.75,-74.54 502.73,-74.68 504.7,-74.83 506.66,-74.99 508.6,-75.19 508.6,-75.19 487,-100.87 487,-100.87"/>
<path fill="#a1dab4" stroke="black" stroke-width="0.1" d="M487,-100.87C487,-100.87 508.6,-75.19 508.6,-75.19 510.6,-75.39 512.58,-75.61 514.52,-75.87 516.47,-76.12 518.39,-76.41 520.27,-76.71 522.15,-77.02 523.99,-77.36 525.8,-77.71 527.6,-78.07 529.36,-78.46 531.07,-78.87 532.79,-79.27 534.45,-79.71 536.07,-80.16 537.68,-80.61 539.24,-81.09 540.74,-81.59 542.24,-82.09 543.69,-82.6 545.07,-83.14 546.45,-83.68 547.76,-84.23 549.01,-84.81 550.27,-85.38 551.45,-85.97 552.56,-86.58 553.67,-87.19 554.72,-87.81 555.68,-88.45 556.65,-89.08 557.54,-89.73 558.36,-90.39 559.18,-91.05 559.91,-91.72 560.57,-92.4 561.23,-93.08 561.81,-93.77 562.31,-94.47 562.81,-95.17 563.23,-95.87 563.56,-96.58 563.89,-97.29 564.15,-98 564.31,-98.72 564.48,-99.43 564.56,-100.15 564.56,-100.87 564.56,-100.87 487,-100.87 487,-100.87"/>
<ellipse fill="none" stroke="black" stroke-width="0.1" cx="487" cy="-100.87" rx="77.56" ry="26.74"/>
<text text-anchor="start" x="455" y="-104.67" font-family="MicrosoftYaHei" font-size="14.00">2462614</text>
<text text-anchor="start" x="440" y="-89.67" font-family="MicrosoftYaHei" font-size="14.00">numerical_36</text>
</g>
<!-- 9&#45;&gt;10 -->
<g id="edge11" class="edge">
<title>9&#45;&gt;10</title>
<path fill="none" stroke="black" d="M550.73,-164.7C540.97,-155.08 529.69,-143.95 519.35,-133.76"/>
<polygon fill="black" stroke="black" points="521.6,-131.06 512.02,-126.54 516.69,-136.05 521.6,-131.06"/>
<text text-anchor="middle" x="512.2" y="-147.84" font-family="MicrosoftYaHei" font-size="14.00">&lt;=0.198</text>
</g>
<!-- 13 -->
<g id="node13" class="node">
<title>13</title>
<path fill="#fefebb" stroke="black" stroke-width="0.1" d="M666,-100.87C666,-100.87 748.96,-100.87 748.96,-100.87 748.96,-101.52 748.89,-102.17 748.74,-102.82 748.59,-103.47 748.37,-104.12 748.08,-104.77 747.78,-105.41 747.42,-106.05 746.98,-106.69 746.54,-107.32 746.03,-107.95 745.44,-108.58 744.86,-109.2 744.21,-109.82 743.48,-110.43 742.76,-111.04 741.97,-111.64 741.11,-112.23 740.25,-112.82 739.33,-113.39 738.34,-113.96 737.35,-114.53 736.3,-115.09 735.18,-115.63 734.06,-116.17 732.89,-116.7 731.65,-117.22 730.41,-117.74 729.12,-118.24 727.77,-118.72 726.42,-119.21 725.02,-119.68 723.56,-120.13 722.11,-120.58 720.6,-121.01 719.04,-121.43 717.49,-121.85 715.89,-122.25 714.24,-122.62 712.6,-123 710.91,-123.36 709.19,-123.7 707.46,-124.04 705.7,-124.36 703.9,-124.66 702.1,-124.96 700.27,-125.23 698.41,-125.49 696.55,-125.74 694.66,-125.97 692.74,-126.18 690.83,-126.39 688.89,-126.58 686.94,-126.75 684.98,-126.91 683.01,-127.05 681.02,-127.17 679.03,-127.29 677.03,-127.38 675.02,-127.45 673.01,-127.52 670.99,-127.57 668.97,-127.59 666.95,-127.62 664.93,-127.62 662.91,-127.59 660.89,-127.57 658.87,-127.52 656.86,-127.45 654.85,-127.38 652.85,-127.28 650.87,-127.16 648.88,-127.04 646.9,-126.9 644.95,-126.74 642.99,-126.57 641.06,-126.38 639.14,-126.17 637.23,-125.96 635.34,-125.73 633.48,-125.47 631.62,-125.22 629.79,-124.94 628,-124.64 626.2,-124.34 624.44,-124.02 622.71,-123.68 620.99,-123.34 619.3,-122.98 617.66,-122.6 616.02,-122.22 614.42,-121.82 612.86,-121.41 611.31,-120.99 609.81,-120.55 608.35,-120.1 606.9,-119.65 605.5,-119.18 604.15,-118.69 602.8,-118.21 601.51,-117.71 600.28,-117.19 599.04,-116.67 597.87,-116.14 596.76,-115.6 595.64,-115.05 594.59,-114.5 593.6,-113.93 592.62,-113.36 591.69,-112.78 590.84,-112.19 589.98,-111.6 589.19,-111 588.47,-110.39 587.75,-109.78 587.1,-109.16 586.52,-108.54 585.94,-107.92 585.43,-107.29 585,-106.65 584.56,-106.01 584.2,-105.37 583.9,-104.73 583.61,-104.08 583.39,-103.43 583.25,-102.78 583.1,-102.13 583.03,-101.48 583.04,-100.83 583.04,-100.18 583.12,-99.53 583.27,-98.88 583.42,-98.23 583.64,-97.58 583.94,-96.94 584.24,-96.29 584.61,-95.65 585.05,-95.02 585.49,-94.38 586.01,-93.75 586.59,-93.13 587.18,-92.5 587.83,-91.89 588.56,-91.28 589.28,-90.67 590.08,-90.07 590.94,-89.48 591.8,-88.89 592.73,-88.31 593.72,-87.74 594.71,-87.18 595.77,-86.62 596.89,-86.08 598,-85.53 599.18,-85.01 600.42,-84.49 601.66,-83.98 602.96,-83.47 604.31,-82.99 605.66,-82.51 607.07,-82.04 608.52,-81.59 609.98,-81.13 611.49,-80.7 613.05,-80.28 614.6,-79.87 616.21,-79.47 617.85,-79.09 619.5,-78.71 621.19,-78.36 622.92,-78.02 624.64,-77.68 626.41,-77.36 628.21,-77.06 630.01,-76.77 631.84,-76.49 633.7,-76.24 635.57,-75.99 637.46,-75.75 639.37,-75.54 641.28,-75.34 643.22,-75.15 645.18,-74.99 647.14,-74.82 649.11,-74.68 651.1,-74.56 653.09,-74.45 655.09,-74.35 657.1,-74.28 659.11,-74.21 661.13,-74.17 663.15,-74.15 663.15,-74.15 666,-100.87 666,-100.87"/>
<path fill="#a1dab4" stroke="black" stroke-width="0.1" d="M666,-100.87C666,-100.87 663.15,-74.15 663.15,-74.15 665.92,-74.11 668.7,-74.13 671.47,-74.19 674.24,-74.25 676.99,-74.35 679.73,-74.5 682.47,-74.65 685.18,-74.84 687.86,-75.07 690.53,-75.31 693.17,-75.59 695.76,-75.91 698.35,-76.23 700.89,-76.59 703.37,-77 705.85,-77.4 708.26,-77.84 710.6,-78.32 712.94,-78.8 715.2,-79.32 717.38,-79.87 719.56,-80.43 721.65,-81.02 723.65,-81.64 725.64,-82.26 727.54,-82.91 729.33,-83.6 731.13,-84.28 732.81,-84.99 734.38,-85.73 735.95,-86.47 737.41,-87.23 738.74,-88.01 740.08,-88.8 741.29,-89.6 742.37,-90.42 743.46,-91.25 744.41,-92.09 745.23,-92.94 746.06,-93.8 746.75,-94.66 747.3,-95.54 747.85,-96.42 748.27,-97.3 748.55,-98.19 748.82,-99.08 748.96,-99.98 748.96,-100.87 748.96,-100.87 666,-100.87 666,-100.87"/>
<ellipse fill="none" stroke="black" stroke-width="0.1" cx="666" cy="-100.87" rx="82.96" ry="26.74"/>
<text text-anchor="start" x="634" y="-104.67" font-family="MicrosoftYaHei" font-size="14.00">1852308</text>
<text text-anchor="start" x="615.5" y="-89.67" font-family="MicrosoftYaHei" font-size="14.00">categorical_11</text>
</g>
<!-- 9&#45;&gt;13 -->
<g id="edge12" class="edge">
<title>9&#45;&gt;13</title>
<path fill="none" stroke="black" d="M601.07,-165.17C611.13,-155.36 622.85,-143.94 633.55,-133.51"/>
<polygon fill="black" stroke="black" points="636.04,-135.97 640.75,-126.48 631.15,-130.96 636.04,-135.97"/>
<text text-anchor="middle" x="640.43" y="-147.78" font-family="MicrosoftYaHei" font-size="14.00">&gt;0.198</text>
</g>
<!-- 4 -->
<g id="node8" class="node">
<title>4</title>
<polygon fill="#fefebb" stroke="black" stroke-width="0.1" points="0,0 35.12,0 35.12,-38 0,-38 0,0"/>
<polygon fill="#a1dab4" stroke="black" stroke-width="0.1" points="35.12,0 72,0 72,-38 35.12,-38 35.12,0"/>
<polygon fill="none" stroke="black" stroke-width="0.1" points="72,-38 0,-38 0,0 72,0 72,-38"/>
<text text-anchor="start" x="8.5" y="-22.8" font-family="MicrosoftYaHei" font-size="14.00">715860</text>
<text text-anchor="start" x="20.5" y="-7.8" font-family="MicrosoftYaHei" font-size="14.00">click</text>
</g>
<!-- 3&#45;&gt;4 -->
<g id="edge7" class="edge">
<title>3&#45;&gt;4</title>
<path fill="none" stroke="black" d="M100.84,-75.69C89.38,-65.84 76.14,-54.47 64.62,-44.58"/>
<polygon fill="black" stroke="black" points="66.84,-41.87 56.97,-38.01 62.27,-47.18 66.84,-41.87"/>
<text text-anchor="middle" x="58.86" y="-59.24" font-family="MicrosoftYaHei" font-size="14.00">&lt;=0.034</text>
</g>
<!-- 5 -->
<g id="node9" class="node">
<title>5</title>
<polygon fill="#fefebb" stroke="black" stroke-width="0.1" points="90,0 141.72,0 141.72,-38 90,-38 90,0"/>
<polygon fill="#a1dab4" stroke="black" stroke-width="0.1" points="141.72,0 170,0 170,-38 141.72,-38 141.72,0"/>
<polygon fill="none" stroke="black" stroke-width="0.1" points="170,-38 90,-38 90,0 170,0 170,-38"/>
<text text-anchor="start" x="98" y="-22.8" font-family="MicrosoftYaHei" font-size="14.00">2297972</text>
<text text-anchor="start" x="101" y="-7.8" font-family="MicrosoftYaHei" font-size="14.00">not click</text>
</g>
<!-- 3&#45;&gt;5 -->
<g id="edge8" class="edge">
<title>3&#45;&gt;5</title>
<path fill="none" stroke="black" d="M129.33,-73.72C129.43,-65.53 129.54,-56.46 129.65,-48.14"/>
<polygon fill="black" stroke="black" points="133.15,-48.17 129.77,-38.12 126.15,-48.08 133.15,-48.17"/>
<text text-anchor="middle" x="147.23" y="-52.32" font-family="MicrosoftYaHei" font-size="14.00">&gt;0.034</text>
</g>
<!-- 7 -->
<g id="node10" class="node">
<title>7</title>
<polygon fill="#fefebb" stroke="black" stroke-width="0.1" points="208,0 243.51,0 243.51,-38 208,-38 208,0"/>
<polygon fill="#a1dab4" stroke="black" stroke-width="0.1" points="243.51,0 280,0 280,-38 243.51,-38 243.51,0"/>
<polygon fill="none" stroke="black" stroke-width="0.1" points="280,-38 208,-38 208,0 280,0 280,-38"/>
<text text-anchor="start" x="216.5" y="-22.8" font-family="MicrosoftYaHei" font-size="14.00">979272</text>
<text text-anchor="start" x="228.5" y="-7.8" font-family="MicrosoftYaHei" font-size="14.00">click</text>
</g>
<!-- 6&#45;&gt;7 -->
<g id="edge9" class="edge">
<title>6&#45;&gt;7</title>
<path fill="none" stroke="black" d="M287.75,-74.6C280.46,-65.5 272.23,-55.22 264.88,-46.06"/>
<polygon fill="black" stroke="black" points="267.43,-43.64 258.44,-38.02 261.96,-48.02 267.43,-43.64"/>
<text text-anchor="middle" x="255.7" y="-59.17" font-family="MicrosoftYaHei" font-size="14.00">&lt;=0.5</text>
</g>
<!-- 8 -->
<g id="node11" class="node">
<title>8</title>
<polygon fill="#fefebb" stroke="black" stroke-width="0.1" points="298,0 326.5,0 326.5,-38 298,-38 298,0"/>
<polygon fill="#a1dab4" stroke="black" stroke-width="0.1" points="326.5,0 370,0 370,-38 326.5,-38 326.5,0"/>
<polygon fill="none" stroke="black" stroke-width="0.1" points="370,-38 298,-38 298,0 370,0 370,-38"/>
<text text-anchor="start" x="306.5" y="-22.8" font-family="MicrosoftYaHei" font-size="14.00">506088</text>
<text text-anchor="start" x="318.5" y="-7.8" font-family="MicrosoftYaHei" font-size="14.00">click</text>
</g>
<!-- 6&#45;&gt;8 -->
<g id="edge10" class="edge">
<title>6&#45;&gt;8</title>
<path fill="none" stroke="black" d="M316.51,-73.72C319.21,-65.44 322.2,-56.26 324.93,-47.86"/>
<polygon fill="black" stroke="black" points="328.33,-48.72 328.1,-38.12 321.68,-46.55 328.33,-48.72"/>
<text text-anchor="middle" x="339.44" y="-56.71" font-family="MicrosoftYaHei" font-size="14.00">&gt;0.5</text>
</g>
<!-- 11 -->
<g id="node14" class="node">
<title>11</title>
<polygon fill="#fefebb" stroke="black" stroke-width="0.1" points="398,0 469.33,0 469.33,-38 398,-38 398,0"/>
<polygon fill="#a1dab4" stroke="black" stroke-width="0.1" points="469.33,0 478,0 478,-38 469.33,-38 469.33,0"/>
<polygon fill="none" stroke="black" stroke-width="0.1" points="478,-38 398,-38 398,0 478,0 478,-38"/>
<text text-anchor="start" x="406" y="-22.8" font-family="MicrosoftYaHei" font-size="14.00">1477198</text>
<text text-anchor="start" x="409" y="-7.8" font-family="MicrosoftYaHei" font-size="14.00">not click</text>
</g>
<!-- 10&#45;&gt;11 -->
<g id="edge13" class="edge">
<title>10&#45;&gt;11</title>
<path fill="none" stroke="black" d="M471.23,-74.16C465.91,-65.49 459.96,-55.8 454.59,-47.04"/>
<polygon fill="black" stroke="black" points="457.45,-45.02 449.24,-38.32 451.49,-48.68 457.45,-45.02"/>
<text text-anchor="middle" x="443.42" y="-58.94" font-family="MicrosoftYaHei" font-size="14.00">&lt;=0.043</text>
</g>
<!-- 12 -->
<g id="node15" class="node">
<title>12</title>
<polygon fill="#fefebb" stroke="black" stroke-width="0.1" points="496,0 556.64,0 556.64,-38 496,-38 496,0"/>
<polygon fill="#a1dab4" stroke="black" stroke-width="0.1" points="556.64,0 570,0 570,-38 556.64,-38 556.64,0"/>
<polygon fill="none" stroke="black" stroke-width="0.1" points="570,-38 496,-38 496,0 570,0 570,-38"/>
<text text-anchor="start" x="505.5" y="-22.8" font-family="MicrosoftYaHei" font-size="14.00">985416</text>
<text text-anchor="start" x="504" y="-7.8" font-family="MicrosoftYaHei" font-size="14.00">not click</text>
</g>
<!-- 10&#45;&gt;12 -->
<g id="edge14" class="edge">
<title>10&#45;&gt;12</title>
<path fill="none" stroke="black" d="M501.81,-74.16C506.8,-65.49 512.38,-55.8 517.43,-47.04"/>
<polygon fill="black" stroke="black" points="520.49,-48.74 522.45,-38.32 514.42,-45.24 520.49,-48.74"/>
<text text-anchor="middle" x="528.94" y="-58.77" font-family="MicrosoftYaHei" font-size="14.00">&gt;0.043</text>
</g>
<!-- 14 -->
<g id="node16" class="node">
<title>14</title>
<polygon fill="#fefebb" stroke="black" stroke-width="0.1" points="593,0 654.58,0 654.58,-38 593,-38 593,0"/>
<polygon fill="#a1dab4" stroke="black" stroke-width="0.1" points="654.58,0 673,0 673,-38 654.58,-38 654.58,0"/>
<polygon fill="none" stroke="black" stroke-width="0.1" points="673,-38 593,-38 593,0 673,0 673,-38"/>
<text text-anchor="start" x="601" y="-22.8" font-family="MicrosoftYaHei" font-size="14.00">1327966</text>
<text text-anchor="start" x="604" y="-7.8" font-family="MicrosoftYaHei" font-size="14.00">not click</text>
</g>
<!-- 13&#45;&gt;14 -->
<g id="edge15" class="edge">
<title>13&#45;&gt;14</title>
<path fill="none" stroke="black" d="M655.38,-74.16C651.87,-65.68 647.96,-56.21 644.4,-47.59"/>
<polygon fill="black" stroke="black" points="647.62,-46.23 640.57,-38.32 641.15,-48.9 647.62,-46.23"/>
<text text-anchor="middle" x="630.98" y="-57.71" font-family="MicrosoftYaHei" font-size="14.00">&lt;=0.5</text>
</g>
<!-- 15 -->
<g id="node17" class="node">
<title>15</title>
<polygon fill="#fefebb" stroke="black" stroke-width="0.1" points="691,0 739.38,0 739.38,-38 691,-38 691,0"/>
<polygon fill="#a1dab4" stroke="black" stroke-width="0.1" points="739.38,0 765,0 765,-38 739.38,-38 739.38,0"/>
<polygon fill="none" stroke="black" stroke-width="0.1" points="765,-38 691,-38 691,0 765,0 765,-38"/>
<text text-anchor="start" x="700.5" y="-22.8" font-family="MicrosoftYaHei" font-size="14.00">524342</text>
<text text-anchor="start" x="699" y="-7.8" font-family="MicrosoftYaHei" font-size="14.00">not click</text>
</g>
<!-- 13&#45;&gt;15 -->
<g id="edge16" class="edge">
<title>13&#45;&gt;15</title>
<path fill="none" stroke="black" d="M685.62,-74.6C692.68,-65.5 700.66,-55.22 707.77,-46.06"/>
<polygon fill="black" stroke="black" points="710.64,-48.07 714.01,-38.02 705.11,-43.78 710.64,-48.07"/>
<text text-anchor="middle" x="717.13" y="-59.13" font-family="MicrosoftYaHei" font-size="14.00">&gt;0.5</text>
</g>
<!-- 18 -->
<g id="node20" class="node">
<title>18</title>
<path fill="#fefebb" stroke="black" stroke-width="0.1" d="M845,-100.87C845,-100.87 922.56,-100.87 922.56,-100.87 922.56,-101.82 922.42,-102.77 922.12,-103.72 921.83,-104.67 921.39,-105.61 920.8,-106.54 920.22,-107.47 919.49,-108.39 918.62,-109.29 917.75,-110.2 916.74,-111.08 915.59,-111.95 914.45,-112.82 913.17,-113.66 911.76,-114.48 910.36,-115.3 908.82,-116.1 907.17,-116.86 905.52,-117.62 903.75,-118.35 901.87,-119.05 900,-119.75 898.01,-120.41 895.93,-121.04 893.84,-121.66 891.66,-122.25 889.4,-122.8 887.13,-123.34 884.79,-123.84 882.37,-124.3 879.94,-124.76 877.45,-125.18 874.91,-125.54 872.36,-125.91 869.75,-126.23 867.11,-126.5 864.46,-126.77 861.77,-127 859.05,-127.17 856.34,-127.34 853.6,-127.46 850.84,-127.53 848.09,-127.61 845.32,-127.63 842.56,-127.6 839.8,-127.57 837.05,-127.49 834.31,-127.36 834.31,-127.36 845,-100.87 845,-100.87"/>
<path fill="#a1dab4" stroke="black" stroke-width="0.1" d="M845,-100.87C845,-100.87 834.31,-127.36 834.31,-127.36 832.48,-127.27 830.66,-127.16 828.85,-127.02 827.04,-126.89 825.25,-126.74 823.48,-126.56 821.7,-126.38 819.94,-126.19 818.21,-125.96 816.47,-125.74 814.76,-125.5 813.08,-125.24 811.39,-124.98 809.74,-124.7 808.11,-124.39 806.49,-124.09 804.89,-123.77 803.33,-123.43 801.78,-123.08 800.25,-122.72 798.77,-122.34 797.29,-121.96 795.84,-121.56 794.44,-121.15 793.04,-120.73 791.68,-120.3 790.37,-119.85 789.06,-119.4 787.79,-118.94 786.58,-118.46 785.36,-117.98 784.19,-117.48 783.08,-116.98 781.97,-116.47 780.91,-115.94 779.9,-115.41 778.9,-114.88 777.95,-114.33 777.06,-113.77 776.17,-113.21 775.33,-112.64 774.56,-112.06 773.79,-111.49 773.07,-110.9 772.42,-110.3 771.77,-109.71 771.18,-109.1 770.65,-108.49 770.13,-107.88 769.66,-107.26 769.26,-106.64 768.87,-106.02 768.53,-105.39 768.26,-104.76 767.99,-104.13 767.79,-103.5 767.65,-102.86 767.51,-102.23 767.44,-101.59 767.44,-100.95 767.43,-100.32 767.49,-99.68 767.62,-99.04 767.74,-98.41 767.94,-97.77 768.19,-97.14 768.45,-96.51 768.77,-95.88 769.16,-95.26 769.55,-94.64 770,-94.02 770.52,-93.41 771.03,-92.8 771.61,-92.19 772.25,-91.59 772.89,-91 773.6,-90.41 774.36,-89.83 775.12,-89.25 775.94,-88.68 776.83,-88.12 777.71,-87.56 778.65,-87.01 779.64,-86.47 780.64,-85.93 781.69,-85.41 782.79,-84.9 783.9,-84.39 785.05,-83.89 786.26,-83.41 787.47,-82.92 788.72,-82.46 790.03,-82.01 791.33,-81.55 792.68,-81.12 794.07,-80.7 795.47,-80.28 796.9,-79.88 798.38,-79.5 799.86,-79.12 801.37,-78.75 802.93,-78.41 804.48,-78.06 806.07,-77.73 807.69,-77.43 809.31,-77.12 810.96,-76.83 812.64,-76.57 814.32,-76.3 816.02,-76.06 817.76,-75.83 819.49,-75.61 821.24,-75.41 823.01,-75.23 824.78,-75.05 826.57,-74.89 828.38,-74.75 830.18,-74.61 832,-74.5 833.83,-74.41 835.66,-74.32 837.5,-74.25 839.34,-74.2 841.18,-74.15 843.03,-74.13 844.88,-74.13 846.73,-74.13 848.57,-74.15 850.42,-74.19 852.26,-74.24 854.1,-74.31 855.93,-74.4 857.76,-74.49 859.58,-74.6 861.39,-74.73 863.19,-74.87 864.98,-75.02 866.76,-75.2 868.53,-75.38 870.29,-75.58 872.02,-75.8 873.75,-76.03 875.46,-76.27 877.14,-76.53 878.82,-76.8 880.48,-77.08 882.1,-77.39 883.72,-77.69 885.31,-78.02 886.87,-78.36 888.43,-78.7 889.94,-79.07 891.43,-79.45 892.91,-79.83 894.35,-80.23 895.74,-80.65 897.14,-81.06 898.5,-81.5 899.8,-81.95 901.11,-82.4 902.37,-82.86 903.58,-83.34 904.79,-83.83 905.96,-84.32 907.06,-84.83 908.17,-85.34 909.23,-85.86 910.23,-86.4 911.23,-86.94 912.17,-87.48 913.06,-88.04 913.94,-88.6 914.77,-89.17 915.54,-89.75 916.31,-90.33 917.02,-90.92 917.66,-91.52 918.31,-92.11 918.89,-92.72 919.42,-93.33 919.94,-93.94 920.39,-94.56 920.79,-95.18 921.18,-95.8 921.51,-96.43 921.77,-97.06 922.04,-97.69 922.23,-98.33 922.37,-98.96 922.5,-99.6 922.56,-100.23 922.56,-100.87 922.56,-100.87 845,-100.87 845,-100.87"/>
<ellipse fill="none" stroke="black" stroke-width="0.1" cx="845" cy="-100.87" rx="77.56" ry="26.74"/>
<text text-anchor="start" x="813" y="-104.67" font-family="MicrosoftYaHei" font-size="14.00">1733648</text>
<text text-anchor="start" x="798" y="-89.67" font-family="MicrosoftYaHei" font-size="14.00">numerical_55</text>
</g>
<!-- 17&#45;&gt;18 -->
<g id="edge19" class="edge">
<title>17&#45;&gt;18</title>
<path fill="none" stroke="black" d="M907.3,-164.7C897.76,-155.08 886.73,-143.95 876.62,-133.76"/>
<polygon fill="black" stroke="black" points="878.99,-131.17 869.46,-126.54 874.01,-136.1 878.99,-131.17"/>
<text text-anchor="middle" x="869.35" y="-147.84" font-family="MicrosoftYaHei" font-size="14.00">&lt;=0.323</text>
</g>
<!-- 21 -->
<g id="node21" class="node">
<title>21</title>
<path fill="#fefebb" stroke="black" stroke-width="0.1" d="M1019,-100.87C1019,-100.87 1096.56,-100.87 1096.56,-100.87 1096.56,-101.63 1096.47,-102.38 1096.28,-103.14 1096.1,-103.89 1095.82,-104.64 1095.45,-105.39 1095.08,-106.14 1094.61,-106.88 1094.06,-107.61 1093.51,-108.34 1092.86,-109.07 1092.13,-109.78 1091.4,-110.49 1090.58,-111.2 1089.68,-111.89 1088.77,-112.58 1087.78,-113.25 1086.71,-113.91 1085.64,-114.57 1084.49,-115.22 1083.26,-115.85 1082.03,-116.47 1080.72,-117.08 1079.34,-117.67 1077.96,-118.26 1076.51,-118.83 1074.99,-119.37 1073.47,-119.92 1071.89,-120.45 1070.24,-120.95 1068.59,-121.45 1066.88,-121.92 1065.11,-122.37 1063.35,-122.82 1061.53,-123.25 1059.66,-123.64 1057.79,-124.04 1055.87,-124.41 1053.91,-124.75 1051.95,-125.09 1049.95,-125.4 1047.91,-125.68 1045.87,-125.97 1043.8,-126.22 1041.7,-126.44 1039.6,-126.66 1037.48,-126.85 1035.33,-127.01 1035.33,-127.01 1019,-100.87 1019,-100.87"/>
<path fill="#a1dab4" stroke="black" stroke-width="0.1" d="M1019,-100.87C1019,-100.87 1035.33,-127.01 1035.33,-127.01 1033.38,-127.16 1031.42,-127.27 1029.45,-127.37 1027.48,-127.46 1025.5,-127.53 1023.51,-127.57 1021.53,-127.61 1019.54,-127.62 1017.55,-127.61 1015.56,-127.59 1013.57,-127.55 1011.59,-127.49 1009.61,-127.42 1007.64,-127.33 1005.68,-127.21 1003.72,-127.1 1001.77,-126.95 999.84,-126.78 997.91,-126.61 996.01,-126.42 994.12,-126.2 992.24,-125.98 990.38,-125.73 988.55,-125.46 986.72,-125.19 984.92,-124.9 983.15,-124.58 981.39,-124.27 979.66,-123.93 977.97,-123.56 976.28,-123.2 974.64,-122.82 973.03,-122.41 971.43,-122 969.88,-121.58 968.37,-121.13 966.86,-120.68 965.4,-120.21 964,-119.73 962.6,-119.24 961.25,-118.73 959.96,-118.21 958.67,-117.69 957.44,-117.15 956.27,-116.6 955.1,-116.04 953.99,-115.47 952.95,-114.89 951.9,-114.3 950.93,-113.71 950.02,-113.1 949.11,-112.49 948.27,-111.86 947.5,-111.23 946.72,-110.6 946.02,-109.96 945.4,-109.31 944.77,-108.65 944.21,-108 943.73,-107.33 943.25,-106.66 942.85,-105.99 942.52,-105.32 942.18,-104.64 941.93,-103.96 941.75,-103.28 941.57,-102.59 941.47,-101.91 941.44,-101.22 941.42,-100.54 941.47,-99.85 941.59,-99.17 941.72,-98.48 941.92,-97.8 942.2,-97.12 942.48,-96.44 942.84,-95.76 943.27,-95.1 943.7,-94.43 944.2,-93.76 944.78,-93.11 945.36,-92.45 946.01,-91.8 946.73,-91.16 947.45,-90.52 948.24,-89.89 949.11,-89.27 949.97,-88.66 950.9,-88.05 951.9,-87.46 952.9,-86.86 953.96,-86.28 955.09,-85.72 956.22,-85.15 957.41,-84.6 958.66,-84.07 959.91,-83.54 961.22,-83.02 962.58,-82.52 963.95,-82.02 965.37,-81.54 966.84,-81.08 968.31,-80.62 969.84,-80.18 971.41,-79.76 972.98,-79.33 974.6,-78.93 976.26,-78.56 977.92,-78.18 979.62,-77.82 981.36,-77.49 983.1,-77.16 984.87,-76.85 986.68,-76.56 988.49,-76.28 990.33,-76.01 992.2,-75.78 994.06,-75.54 995.96,-75.33 997.87,-75.14 999.79,-74.95 1001.72,-74.79 1003.67,-74.66 1005.62,-74.52 1007.59,-74.41 1009.56,-74.33 1011.54,-74.24 1013.52,-74.19 1015.51,-74.16 1017.49,-74.13 1019.48,-74.12 1021.47,-74.14 1023.46,-74.16 1025.45,-74.21 1027.43,-74.29 1029.4,-74.36 1031.37,-74.46 1033.33,-74.59 1035.28,-74.72 1037.22,-74.87 1039.14,-75.05 1041.07,-75.23 1042.97,-75.43 1044.84,-75.66 1046.72,-75.89 1048.57,-76.14 1050.39,-76.42 1052.21,-76.69 1054,-77 1055.75,-77.32 1057.5,-77.65 1059.21,-77.99 1060.89,-78.36 1062.56,-78.73 1064.2,-79.13 1065.78,-79.54 1067.37,-79.95 1068.91,-80.39 1070.4,-80.84 1071.89,-81.3 1073.33,-81.77 1074.71,-82.27 1076.1,-82.76 1077.43,-83.27 1078.7,-83.8 1079.97,-84.32 1081.18,-84.87 1082.33,-85.43 1083.48,-85.99 1084.56,-86.56 1085.58,-87.15 1086.6,-87.74 1087.56,-88.34 1088.44,-88.96 1089.33,-89.57 1090.15,-90.2 1090.89,-90.83 1091.64,-91.47 1092.32,-92.12 1092.92,-92.77 1093.52,-93.42 1094.05,-94.08 1094.51,-94.75 1094.96,-95.42 1095.34,-96.09 1095.65,-96.77 1095.95,-97.45 1096.18,-98.13 1096.33,-98.81 1096.49,-99.5 1096.56,-100.18 1096.56,-100.87 1096.56,-100.87 1019,-100.87 1019,-100.87"/>
<ellipse fill="none" stroke="black" stroke-width="0.1" cx="1019" cy="-100.87" rx="77.56" ry="26.74"/>
<text text-anchor="start" x="991.5" y="-104.67" font-family="MicrosoftYaHei" font-size="14.00">547710</text>
<text text-anchor="start" x="972" y="-89.67" font-family="MicrosoftYaHei" font-size="14.00">numerical_55</text>
</g>
<!-- 17&#45;&gt;21 -->
<g id="edge20" class="edge">
<title>17&#45;&gt;21</title>
<path fill="none" stroke="black" d="M956.7,-164.7C966.24,-155.08 977.27,-143.95 987.38,-133.76"/>
<polygon fill="black" stroke="black" points="989.99,-136.1 994.54,-126.54 985.01,-131.17 989.99,-136.1"/>
<text text-anchor="middle" x="994.65" y="-147.84" font-family="MicrosoftYaHei" font-size="14.00">&gt;0.323</text>
</g>
<!-- 25 -->
<g id="node26" class="node">
<title>25</title>
<path fill="#fefebb" stroke="black" stroke-width="0.1" d="M1193,-100.87C1193,-100.87 1270.56,-100.87 1270.56,-100.87 1270.56,-101.44 1270.51,-102.01 1270.41,-102.58 1270.3,-103.15 1270.14,-103.72 1269.93,-104.28 1269.72,-104.85 1269.46,-105.41 1269.14,-105.97 1268.82,-106.53 1268.46,-107.09 1268.04,-107.64 1267.62,-108.19 1267.15,-108.74 1266.63,-109.28 1266.11,-109.82 1265.54,-110.36 1264.92,-110.88 1264.3,-111.41 1263.63,-111.94 1262.91,-112.45 1262.2,-112.96 1261.43,-113.47 1260.62,-113.97 1259.81,-114.46 1258.96,-114.95 1258.06,-115.43 1257.16,-115.91 1256.21,-116.38 1255.22,-116.83 1254.24,-117.29 1253.21,-117.74 1252.14,-118.17 1251.07,-118.61 1249.96,-119.03 1248.81,-119.44 1247.66,-119.85 1246.47,-120.25 1245.25,-120.63 1244.03,-121.02 1242.77,-121.39 1241.48,-121.74 1240.18,-122.1 1238.86,-122.44 1237.51,-122.77 1236.15,-123.1 1234.77,-123.41 1233.35,-123.71 1231.94,-124 1230.5,-124.28 1229.04,-124.55 1227.57,-124.81 1226.08,-125.06 1224.57,-125.3 1223.06,-125.53 1221.53,-125.74 1219.98,-125.94 1218.43,-126.14 1216.86,-126.32 1215.27,-126.48 1213.69,-126.65 1212.09,-126.79 1210.48,-126.92 1208.86,-127.05 1207.24,-127.16 1205.61,-127.26 1203.98,-127.35 1202.34,-127.42 1200.69,-127.48 1199.04,-127.54 1197.39,-127.57 1195.74,-127.59 1194.09,-127.61 1192.43,-127.62 1190.78,-127.6 1189.12,-127.58 1187.47,-127.55 1185.83,-127.5 1184.18,-127.44 1182.54,-127.37 1180.9,-127.28 1179.27,-127.19 1177.64,-127.09 1176.03,-126.96 1174.42,-126.84 1172.81,-126.7 1171.23,-126.54 1169.64,-126.38 1168.07,-126.2 1166.51,-126 1164.96,-125.81 1163.42,-125.6 1161.9,-125.37 1160.39,-125.14 1158.89,-124.89 1157.42,-124.63 1155.95,-124.37 1154.51,-124.09 1153.09,-123.8 1151.67,-123.51 1150.28,-123.2 1148.92,-122.87 1147.56,-122.55 1146.23,-122.21 1144.93,-121.86 1143.63,-121.5 1142.37,-121.14 1141.14,-120.75 1139.91,-120.37 1138.71,-119.98 1137.55,-119.57 1136.4,-119.16 1135.28,-118.74 1134.2,-118.31 1133.12,-117.88 1132.08,-117.43 1131.09,-116.98 1130.09,-116.52 1129.14,-116.06 1128.23,-115.58 1127.32,-115.1 1126.45,-114.62 1125.63,-114.12 1124.81,-113.63 1124.04,-113.12 1123.31,-112.61 1122.58,-112.1 1121.91,-111.58 1121.28,-111.05 1120.65,-110.52 1120.07,-109.99 1119.54,-109.45 1119,-108.91 1118.52,-108.36 1118.09,-107.81 1117.67,-107.26 1117.29,-106.71 1116.96,-106.15 1116.63,-105.59 1116.36,-105.02 1116.14,-104.46 1115.92,-103.89 1115.75,-103.33 1115.63,-102.76 1115.51,-102.19 1115.45,-101.62 1115.44,-101.05 1115.43,-100.48 1115.47,-99.91 1115.56,-99.34 1115.66,-98.77 1115.81,-98.2 1116.01,-97.64 1116.21,-97.07 1116.46,-96.51 1116.76,-95.94 1117.07,-95.38 1117.42,-94.83 1117.83,-94.27 1118.24,-93.72 1118.7,-93.17 1119.21,-92.63 1119.72,-92.09 1120.28,-91.55 1120.89,-91.02 1121.5,-90.49 1122.16,-89.97 1122.86,-89.45 1123.57,-88.94 1124.32,-88.43 1125.12,-87.93 1125.92,-87.43 1126.77,-86.94 1127.66,-86.46 1128.55,-85.98 1129.49,-85.51 1130.47,-85.05 1131.45,-84.59 1132.47,-84.14 1133.53,-83.7 1134.59,-83.27 1135.69,-82.84 1136.83,-82.43 1137.98,-82.01 1139.15,-81.61 1140.37,-81.23 1141.58,-80.84 1142.84,-80.47 1144.12,-80.11 1145.4,-79.75 1146.72,-79.4 1148.07,-79.07 1148.07,-79.07 1193,-100.87 1193,-100.87"/>
<path fill="#a1dab4" stroke="black" stroke-width="0.1" d="M1193,-100.87C1193,-100.87 1148.07,-79.07 1148.07,-79.07 1149.51,-78.72 1150.99,-78.38 1152.5,-78.06 1154,-77.75 1155.54,-77.45 1157.11,-77.16 1158.68,-76.88 1160.27,-76.62 1161.89,-76.37 1163.52,-76.13 1165.16,-75.9 1166.82,-75.7 1168.49,-75.49 1170.17,-75.31 1171.87,-75.14 1173.58,-74.97 1175.29,-74.83 1177.02,-74.7 1178.75,-74.58 1180.5,-74.47 1182.25,-74.39 1184,-74.3 1185.76,-74.24 1187.52,-74.2 1189.29,-74.15 1191.06,-74.13 1192.82,-74.13 1194.59,-74.13 1196.36,-74.15 1198.13,-74.19 1199.89,-74.23 1201.65,-74.29 1203.4,-74.37 1205.15,-74.45 1206.9,-74.56 1208.63,-74.68 1210.36,-74.8 1212.08,-74.94 1213.79,-75.11 1215.49,-75.27 1217.18,-75.45 1218.84,-75.66 1220.51,-75.86 1222.16,-76.08 1223.78,-76.33 1225.41,-76.57 1227,-76.83 1228.58,-77.11 1230.15,-77.39 1231.69,-77.69 1233.2,-78 1234.72,-78.32 1236.2,-78.65 1237.64,-79 1239.09,-79.35 1240.5,-79.72 1241.87,-80.11 1243.25,-80.49 1244.58,-80.89 1245.87,-81.31 1247.17,-81.72 1248.42,-82.15 1249.63,-82.6 1250.84,-83.04 1252,-83.5 1253.12,-83.97 1254.24,-84.45 1255.31,-84.93 1256.33,-85.43 1257.35,-85.93 1258.32,-86.44 1259.24,-86.96 1260.16,-87.48 1261.03,-88.01 1261.84,-88.55 1262.66,-89.09 1263.42,-89.64 1264.12,-90.2 1264.83,-90.76 1265.48,-91.33 1266.07,-91.9 1266.67,-92.48 1267.2,-93.06 1267.68,-93.65 1268.16,-94.23 1268.58,-94.82 1268.94,-95.42 1269.3,-96.02 1269.6,-96.62 1269.84,-97.22 1270.08,-97.83 1270.26,-98.43 1270.38,-99.04 1270.5,-99.65 1270.56,-100.26 1270.56,-100.87 1270.56,-100.87 1193,-100.87 1193,-100.87"/>
<ellipse fill="none" stroke="black" stroke-width="0.1" cx="1193" cy="-100.87" rx="77.56" ry="26.74"/>
<text text-anchor="start" x="1161" y="-104.67" font-family="MicrosoftYaHei" font-size="14.00">1140658</text>
<text text-anchor="start" x="1146" y="-89.67" font-family="MicrosoftYaHei" font-size="14.00">numerical_63</text>
</g>
<!-- 24&#45;&gt;25 -->
<g id="edge25" class="edge">
<title>24&#45;&gt;25</title>
<path fill="none" stroke="black" d="M1193,-163.29C1193,-155.32 1193,-146.43 1193,-137.94"/>
<polygon fill="black" stroke="black" points="1196.5,-137.87 1193,-127.87 1189.5,-137.87 1196.5,-137.87"/>
<text text-anchor="middle" x="1175.32" y="-141.85" font-family="MicrosoftYaHei" font-size="14.00">&lt;=0.332</text>
</g>
<!-- 28 -->
<g id="node27" class="node">
<title>28</title>
<path fill="#fefebb" stroke="black" stroke-width="0.1" d="M1367,-100.87C1367,-100.87 1444.56,-100.87 1444.56,-100.87 1444.56,-101.37 1444.52,-101.87 1444.44,-102.37 1444.36,-102.87 1444.24,-103.37 1444.07,-103.87 1443.91,-104.37 1443.71,-104.87 1443.46,-105.36 1443.22,-105.86 1442.93,-106.35 1442.61,-106.84 1442.28,-107.32 1441.92,-107.81 1441.52,-108.29 1441.11,-108.77 1440.67,-109.25 1440.19,-109.72 1439.71,-110.2 1439.19,-110.67 1438.63,-111.13 1438.07,-111.59 1437.48,-112.05 1436.84,-112.5 1436.21,-112.95 1435.54,-113.4 1434.84,-113.84 1434.13,-114.27 1433.39,-114.71 1432.61,-115.13 1431.84,-115.55 1431.03,-115.97 1430.19,-116.38 1429.34,-116.79 1428.46,-117.19 1427.56,-117.58 1426.65,-117.97 1425.71,-118.35 1424.74,-118.73 1423.76,-119.1 1422.76,-119.46 1421.73,-119.82 1420.7,-120.17 1419.64,-120.52 1418.56,-120.85 1417.47,-121.18 1416.36,-121.5 1415.22,-121.82 1414.08,-122.13 1412.91,-122.43 1411.72,-122.72 1410.54,-123.01 1409.33,-123.28 1408.09,-123.55 1406.86,-123.82 1405.6,-124.07 1404.33,-124.31 1403.05,-124.55 1401.76,-124.78 1400.45,-125 1399.13,-125.21 1397.81,-125.42 1396.46,-125.61 1395.11,-125.8 1393.75,-125.97 1392.38,-126.14 1391.01,-126.3 1389.62,-126.45 1388.22,-126.59 1386.82,-126.73 1385.41,-126.85 1383.99,-126.96 1382.57,-127.07 1381.14,-127.17 1379.71,-127.25 1378.27,-127.33 1376.83,-127.4 1375.39,-127.45 1373.94,-127.51 1372.49,-127.55 1371.04,-127.57 1369.59,-127.6 1368.13,-127.61 1366.68,-127.61 1365.22,-127.61 1363.77,-127.59 1362.32,-127.56 1360.87,-127.53 1359.42,-127.49 1357.97,-127.43 1356.53,-127.37 1355.09,-127.3 1353.66,-127.21 1352.22,-127.13 1350.8,-127.03 1349.38,-126.91 1349.38,-126.91 1367,-100.87 1367,-100.87"/>
<path fill="#a1dab4" stroke="black" stroke-width="0.1" d="M1367,-100.87C1367,-100.87 1349.38,-126.91 1349.38,-126.91 1347.62,-126.77 1345.87,-126.61 1344.14,-126.42 1342.41,-126.24 1340.7,-126.03 1339.01,-125.81 1337.32,-125.58 1335.65,-125.34 1334.01,-125.07 1332.37,-124.81 1330.76,-124.52 1329.18,-124.22 1327.6,-123.91 1326.05,-123.59 1324.53,-123.25 1323.02,-122.9 1321.54,-122.54 1320.09,-122.17 1318.65,-121.79 1317.25,-121.39 1315.89,-120.98 1314.52,-120.57 1313.2,-120.14 1311.93,-119.7 1310.65,-119.26 1309.42,-118.8 1308.24,-118.33 1307.06,-117.85 1305.92,-117.36 1304.84,-116.86 1303.76,-116.36 1302.72,-115.85 1301.74,-115.33 1300.77,-114.8 1299.84,-114.26 1298.97,-113.71 1298.1,-113.17 1297.29,-112.61 1296.53,-112.04 1295.77,-111.47 1295.07,-110.9 1294.43,-110.31 1293.79,-109.73 1293.21,-109.14 1292.69,-108.54 1292.18,-107.94 1291.72,-107.34 1291.32,-106.73 1290.92,-106.12 1290.59,-105.5 1290.32,-104.89 1290.04,-104.27 1289.83,-103.65 1289.69,-103.03 1289.54,-102.4 1289.46,-101.78 1289.44,-101.16 1289.42,-100.53 1289.47,-99.91 1289.57,-99.28 1289.68,-98.66 1289.85,-98.04 1290.08,-97.42 1290.32,-96.8 1290.61,-96.18 1290.97,-95.57 1291.33,-94.96 1291.75,-94.35 1292.24,-93.75 1292.72,-93.15 1293.26,-92.55 1293.86,-91.96 1294.47,-91.37 1295.13,-90.79 1295.85,-90.22 1296.57,-89.65 1297.35,-89.08 1298.19,-88.53 1299.02,-87.98 1299.92,-87.43 1300.86,-86.9 1301.81,-86.37 1302.81,-85.85 1303.86,-85.34 1304.91,-84.83 1306.02,-84.33 1307.17,-83.85 1308.32,-83.37 1309.52,-82.9 1310.77,-82.45 1312.02,-82 1313.31,-81.56 1314.65,-81.14 1315.99,-80.72 1317.36,-80.31 1318.78,-79.92 1320.2,-79.54 1321.66,-79.16 1323.15,-78.81 1324.65,-78.46 1326.18,-78.12 1327.74,-77.81 1329.3,-77.49 1330.9,-77.19 1332.52,-76.92 1334.14,-76.64 1335.79,-76.38 1337.47,-76.14 1339.14,-75.91 1340.84,-75.69 1342.56,-75.49 1344.28,-75.29 1346.02,-75.12 1347.77,-74.96 1349.53,-74.81 1351.3,-74.68 1353.08,-74.56 1354.86,-74.45 1356.65,-74.36 1358.45,-74.29 1360.25,-74.22 1362.06,-74.18 1363.87,-74.15 1365.68,-74.13 1367.49,-74.12 1369.3,-74.14 1371.11,-74.16 1372.92,-74.2 1374.72,-74.26 1376.52,-74.32 1378.32,-74.41 1380.11,-74.51 1381.89,-74.62 1383.66,-74.75 1385.42,-74.89 1387.18,-75.04 1388.93,-75.21 1390.65,-75.4 1392.38,-75.59 1394.08,-75.8 1395.77,-76.04 1397.45,-76.27 1399.11,-76.52 1400.74,-76.79 1402.37,-77.06 1403.97,-77.35 1405.54,-77.66 1407.11,-77.97 1408.65,-78.3 1410.16,-78.65 1411.66,-79 1413.13,-79.36 1414.56,-79.75 1415.99,-80.13 1417.39,-80.53 1418.74,-80.95 1420.09,-81.36 1421.39,-81.8 1422.65,-82.24 1423.92,-82.69 1425.13,-83.16 1426.3,-83.63 1427.47,-84.11 1428.59,-84.6 1429.65,-85.11 1430.72,-85.61 1431.74,-86.13 1432.7,-86.66 1433.66,-87.19 1434.57,-87.73 1435.42,-88.28 1436.28,-88.83 1437.07,-89.39 1437.81,-89.96 1438.55,-90.53 1439.23,-91.11 1439.85,-91.69 1440.48,-92.28 1441.04,-92.87 1441.54,-93.47 1442.04,-94.07 1442.48,-94.68 1442.86,-95.29 1443.24,-95.9 1443.55,-96.52 1443.8,-97.14 1444.06,-97.75 1444.25,-98.38 1444.37,-99 1444.5,-99.62 1444.56,-100.25 1444.56,-100.87 1444.56,-100.87 1367,-100.87 1367,-100.87"/>
<ellipse fill="none" stroke="black" stroke-width="0.1" cx="1367" cy="-100.87" rx="77.56" ry="26.74"/>
<text text-anchor="start" x="1339.5" y="-104.67" font-family="MicrosoftYaHei" font-size="14.00">165906</text>
<text text-anchor="start" x="1320" y="-89.67" font-family="MicrosoftYaHei" font-size="14.00">numerical_63</text>
</g>
<!-- 24&#45;&gt;28 -->
<g id="edge26" class="edge">
<title>24&#45;&gt;28</title>
<path fill="none" stroke="black" d="M1236.01,-167.92C1259.94,-155.85 1289.9,-140.75 1315.12,-128.03"/>
<polygon fill="black" stroke="black" points="1316.83,-131.09 1324.18,-123.46 1313.68,-124.84 1316.83,-131.09"/>
<text text-anchor="middle" x="1316.36" y="-143.5" font-family="MicrosoftYaHei" font-size="14.00">&gt;0.332</text>
</g>
<!-- 19 -->
<g id="node22" class="node">
<title>19</title>
<polygon fill="#fefebb" stroke="black" stroke-width="0.1" points="785,0 810.38,0 810.38,-38 785,-38 785,0"/>
<polygon fill="#a1dab4" stroke="black" stroke-width="0.1" points="810.38,0 857,0 857,-38 810.38,-38 810.38,0"/>
<polygon fill="none" stroke="black" stroke-width="0.1" points="857,-38 785,-38 785,0 857,0 857,-38"/>
<text text-anchor="start" x="793.5" y="-22.8" font-family="MicrosoftYaHei" font-size="14.00">951685</text>
<text text-anchor="start" x="805.5" y="-7.8" font-family="MicrosoftYaHei" font-size="14.00">click</text>
</g>
<!-- 18&#45;&gt;19 -->
<g id="edge21" class="edge">
<title>18&#45;&gt;19</title>
<path fill="none" stroke="black" d="M837.14,-73.72C834.65,-65.44 831.89,-56.26 829.37,-47.86"/>
<polygon fill="black" stroke="black" points="832.68,-46.69 826.45,-38.12 825.97,-48.71 832.68,-46.69"/>
<text text-anchor="middle" x="814.6" y="-56.44" font-family="MicrosoftYaHei" font-size="14.00">&lt;=0.284</text>
</g>
<!-- 20 -->
<g id="node23" class="node">
<title>20</title>
<polygon fill="#fefebb" stroke="black" stroke-width="0.1" points="875,0 894.55,0 894.55,-38 875,-38 875,0"/>
<polygon fill="#a1dab4" stroke="black" stroke-width="0.1" points="894.55,0 947,0 947,-38 894.55,-38 894.55,0"/>
<polygon fill="none" stroke="black" stroke-width="0.1" points="947,-38 875,-38 875,0 947,0 947,-38"/>
<text text-anchor="start" x="883.5" y="-22.8" font-family="MicrosoftYaHei" font-size="14.00">781963</text>
<text text-anchor="start" x="895.5" y="-7.8" font-family="MicrosoftYaHei" font-size="14.00">click</text>
</g>
<!-- 18&#45;&gt;20 -->
<g id="edge22" class="edge">
<title>18&#45;&gt;20</title>
<path fill="none" stroke="black" d="M865.88,-74.6C873.48,-65.41 882.07,-55.01 889.7,-45.78"/>
<polygon fill="black" stroke="black" points="892.43,-47.96 896.11,-38.02 887.04,-43.5 892.43,-47.96"/>
<text text-anchor="middle" x="898.47" y="-59.21" font-family="MicrosoftYaHei" font-size="14.00">&gt;0.284</text>
</g>
<!-- 22 -->
<g id="node24" class="node">
<title>22</title>
<polygon fill="#fefebb" stroke="black" stroke-width="0.1" points="966,0 979.7,0 979.7,-38 966,-38 966,0"/>
<polygon fill="#a1dab4" stroke="black" stroke-width="0.1" points="979.7,0 1038,0 1038,-38 979.7,-38 979.7,0"/>
<polygon fill="none" stroke="black" stroke-width="0.1" points="1038,-38 966,-38 966,0 1038,0 1038,-38"/>
<text text-anchor="start" x="974.5" y="-22.8" font-family="MicrosoftYaHei" font-size="14.00">414647</text>
<text text-anchor="start" x="986.5" y="-7.8" font-family="MicrosoftYaHei" font-size="14.00">click</text>
</g>
<!-- 21&#45;&gt;22 -->
<g id="edge23" class="edge">
<title>21&#45;&gt;22</title>
<path fill="none" stroke="black" d="M1013.43,-73.72C1011.69,-65.53 1009.76,-56.46 1007.99,-48.14"/>
<polygon fill="black" stroke="black" points="1011.36,-47.18 1005.86,-38.12 1004.52,-48.63 1011.36,-47.18"/>
<text text-anchor="middle" x="992.25" y="-55.39" font-family="MicrosoftYaHei" font-size="14.00">&lt;=0.372</text>
</g>
<!-- 23 -->
<g id="node25" class="node">
<title>23</title>
<polygon fill="#fefebb" stroke="black" stroke-width="0.1" points="1056,0 1063.65,0 1063.65,-38 1056,-38 1056,0"/>
<polygon fill="#a1dab4" stroke="black" stroke-width="0.1" points="1063.65,0 1128,0 1128,-38 1063.65,-38 1063.65,0"/>
<polygon fill="none" stroke="black" stroke-width="0.1" points="1128,-38 1056,-38 1056,0 1128,0 1128,-38"/>
<text text-anchor="start" x="1064.5" y="-22.8" font-family="MicrosoftYaHei" font-size="14.00">133063</text>
<text text-anchor="start" x="1076.5" y="-7.8" font-family="MicrosoftYaHei" font-size="14.00">click</text>
</g>
<!-- 21&#45;&gt;23 -->
<g id="edge24" class="edge">
<title>21&#45;&gt;23</title>
<path fill="none" stroke="black" d="M1041.7,-75.04C1050.2,-65.73 1059.87,-55.15 1068.45,-45.77"/>
<polygon fill="black" stroke="black" points="1071.18,-47.96 1075.35,-38.22 1066.02,-43.24 1071.18,-47.96"/>
<text text-anchor="middle" x="1076.47" y="-59.5" font-family="MicrosoftYaHei" font-size="14.00">&gt;0.372</text>
</g>
<!-- 26 -->
<g id="node28" class="node">
<title>26</title>
<polygon fill="#fefebb" stroke="black" stroke-width="0.1" points="1147,0 1184.47,0 1184.47,-38 1147,-38 1147,0"/>
<polygon fill="#a1dab4" stroke="black" stroke-width="0.1" points="1184.47,0 1221,0 1221,-38 1184.47,-38 1184.47,0"/>
<polygon fill="none" stroke="black" stroke-width="0.1" points="1221,-38 1147,-38 1147,0 1221,0 1221,-38"/>
<text text-anchor="start" x="1156.5" y="-22.8" font-family="MicrosoftYaHei" font-size="14.00">580156</text>
<text text-anchor="start" x="1155" y="-7.8" font-family="MicrosoftYaHei" font-size="14.00">not click</text>
</g>
<!-- 25&#45;&gt;26 -->
<g id="edge27" class="edge">
<title>25&#45;&gt;26</title>
<path fill="none" stroke="black" d="M1190.05,-73.72C1189.13,-65.53 1188.11,-56.46 1187.17,-48.14"/>
<polygon fill="black" stroke="black" points="1190.64,-47.67 1186.04,-38.12 1183.68,-48.45 1190.64,-47.67"/>
<text text-anchor="middle" x="1170.46" y="-53.97" font-family="MicrosoftYaHei" font-size="14.00">&lt;=0.072</text>
</g>
<!-- 27 -->
<g id="node29" class="node">
<title>27</title>
<polygon fill="#fefebb" stroke="black" stroke-width="0.1" points="1239,0 1287.79,0 1287.79,-38 1239,-38 1239,0"/>
<polygon fill="#a1dab4" stroke="black" stroke-width="0.1" points="1287.79,0 1313,0 1313,-38 1287.79,-38 1287.79,0"/>
<polygon fill="none" stroke="black" stroke-width="0.1" points="1313,-38 1239,-38 1239,0 1313,0 1313,-38"/>
<text text-anchor="start" x="1248.5" y="-22.8" font-family="MicrosoftYaHei" font-size="14.00">560502</text>
<text text-anchor="start" x="1247" y="-7.8" font-family="MicrosoftYaHei" font-size="14.00">not click</text>
</g>
<!-- 25&#45;&gt;27 -->
<g id="edge28" class="edge">
<title>25&#45;&gt;27</title>
<path fill="none" stroke="black" d="M1218.81,-75.04C1228.67,-65.55 1239.91,-54.73 1249.81,-45.21"/>
<polygon fill="black" stroke="black" points="1252.29,-47.68 1257.07,-38.22 1247.43,-42.63 1252.29,-47.68"/>
<text text-anchor="middle" x="1256.59" y="-59.52" font-family="MicrosoftYaHei" font-size="14.00">&gt;0.072</text>
</g>
<!-- 29 -->
<g id="node30" class="node">
<title>29</title>
<polygon fill="#fefebb" stroke="black" stroke-width="0.1" points="1331,0 1351.22,0 1351.22,-38 1331,-38 1331,0"/>
<polygon fill="#a1dab4" stroke="black" stroke-width="0.1" points="1351.22,0 1403,0 1403,-38 1351.22,-38 1351.22,0"/>
<polygon fill="none" stroke="black" stroke-width="0.1" points="1403,-38 1331,-38 1331,0 1403,0 1403,-38"/>
<text text-anchor="start" x="1344" y="-22.8" font-family="MicrosoftYaHei" font-size="14.00">81378</text>
<text text-anchor="start" x="1351.5" y="-7.8" font-family="MicrosoftYaHei" font-size="14.00">click</text>
</g>
<!-- 28&#45;&gt;29 -->
<g id="edge29" class="edge">
<title>28&#45;&gt;29</title>
<path fill="none" stroke="black" d="M1367,-73.72C1367,-65.53 1367,-56.46 1367,-48.14"/>
<polygon fill="black" stroke="black" points="1370.5,-48.12 1367,-38.12 1363.5,-48.12 1370.5,-48.12"/>
<text text-anchor="middle" x="1349.32" y="-52.1" font-family="MicrosoftYaHei" font-size="14.00">&lt;=0.034</text>
</g>
<!-- 30 -->
<g id="node31" class="node">
<title>30</title>
<polygon fill="#fefebb" stroke="black" stroke-width="0.1" points="1421,0 1452.53,0 1452.53,-38 1421,-38 1421,0"/>
<polygon fill="#a1dab4" stroke="black" stroke-width="0.1" points="1452.53,0 1493,0 1493,-38 1452.53,-38 1452.53,0"/>
<polygon fill="none" stroke="black" stroke-width="0.1" points="1493,-38 1421,-38 1421,0 1493,0 1493,-38"/>
<text text-anchor="start" x="1434" y="-22.8" font-family="MicrosoftYaHei" font-size="14.00">84528</text>
<text text-anchor="start" x="1441.5" y="-7.8" font-family="MicrosoftYaHei" font-size="14.00">click</text>
</g>
<!-- 28&#45;&gt;30 -->
<g id="edge30" class="edge">
<title>28&#45;&gt;30</title>
<path fill="none" stroke="black" d="M1394.49,-75.47C1405.39,-65.8 1417.91,-54.69 1428.87,-44.96"/>
<polygon fill="black" stroke="black" points="1431.38,-47.42 1436.53,-38.16 1426.73,-42.18 1431.38,-47.42"/>
<text text-anchor="middle" x="1435.04" y="-59.42" font-family="MicrosoftYaHei" font-size="14.00">&gt;0.034</text>
</g>
</g>
</svg>
